<?xml version="1.0" standalone="no"?>
<!DOCTYPE svg PUBLIC "-//W3C//DTD SVG 20010904//EN"
 "http://www.w3.org/TR/2001/REC-SVG-20010904/DTD/svg10.dtd">
<svg version="1.0" xmlns="http://www.w3.org/2000/svg"
 width="300.000000pt" height="300.000000pt" viewBox="0 0 300.000000 300.000000"
 preserveAspectRatio="xMidYMid meet">

<g transform="translate(0.000000,300.000000) scale(0.100000,-0.100000)"
fill="#000000" stroke="none">
<path d="M534 1850 c-28 -11 -36 -25 -45 -75 -4 -22 -17 -67 -29 -100 -28 -76
-22 -124 19 -176 30 -37 31 -39 19 -84 -7 -26 -22 -52 -35 -60 -46 -30 -39
-120 11 -143 32 -14 425 -16 442 -1 21 17 17 62 -10 101 -13 19 -31 59 -41 88
-17 50 -17 53 0 63 64 35 77 91 42 174 -14 32 -29 68 -32 81 -20 71 -106 124
-210 127 -38 1 -79 5 -90 8 -11 4 -30 2 -41 -3z m219 -54 c34 -14 87 -68 87
-89 0 -7 12 -36 25 -66 20 -42 23 -56 13 -62 -10 -7 -10 -13 -2 -27 16 -25 0
-50 -42 -68 -49 -21 -235 -19 -280 2 -69 33 -92 100 -63 183 10 28 29 43 29
23 0 -11 46 -32 69 -32 10 0 30 9 45 21 28 22 35 73 16 110 -10 17 -7 19 30
19 22 0 55 -6 73 -14z m91 -402 c3 -9 6 -25 6 -37 0 -20 -6 -22 -58 -23 -31 0
-77 -8 -102 -17 -34 -12 -40 -13 -26 -2 17 13 100 35 131 35 7 0 16 14 20 30
7 33 19 39 29 14z"/>
<path d="M742 1668 c-35 -38 -38 -73 -8 -102 31 -32 46 -32 80 -1 47 43 27
125 -31 125 -11 0 -29 -10 -41 -22z m82 -41 c8 -13 6 -21 -7 -34 -17 -17 -19
-17 -32 1 -10 14 -11 24 -4 38 12 22 27 20 43 -5z"/>
<path d="M1024 1787 c-2 -7 -3 -60 -2 -118 l3 -104 70 -3 c95 -4 110 -22 19
-22 -77 0 -98 -8 -92 -36 3 -16 15 -20 78 -24 41 -3 75 -9 75 -15 0 -5 -34
-12 -75 -15 -72 -5 -75 -6 -75 -30 l0 -25 185 0 185 0 0 25 c0 24 -3 25 -75
30 -41 3 -75 10 -75 15 0 6 34 12 75 15 63 4 75 8 78 24 6 27 -15 36 -91 36
-43 0 -66 4 -62 10 3 6 30 10 59 10 42 0 57 5 75 24 20 21 22 32 19 117 l-3
94 -183 3 c-145 2 -184 0 -188 -11z m151 -107 l0 -55 -45 0 -45 0 -3 44 c-5
65 1 73 50 69 l43 -3 0 -55z m160 0 l0 -55 -45 0 -45 0 -3 44 c-5 65 1 73 50
69 l43 -3 0 -55z"/>
<path d="M1110 1695 c-11 -13 -11 -19 3 -32 21 -21 49 -9 45 19 -4 28 -30 35
-48 13z"/>
<path d="M1264 1695 c-9 -23 3 -45 25 -45 23 0 35 28 20 46 -15 18 -38 18 -45
-1z"/>
<path d="M1465 1788 c-3 -7 -4 -128 -3 -268 l3 -255 42 1 c26 0 51 8 63 19 20
18 20 28 18 264 l-3 246 -58 3 c-40 2 -59 -1 -62 -10z m73 -263 c-4 -246 -22
-254 -26 -10 -3 189 2 243 19 213 5 -10 8 -99 7 -203z"/>
<path d="M1627 1775 c-15 -14 -27 -29 -27 -32 0 -4 12 -20 27 -35 29 -31 60
-36 69 -13 4 8 17 15 30 15 14 0 27 -7 30 -15 9 -22 37 -18 62 8 28 30 28 54
0 78 -28 22 -51 24 -68 4 -7 -8 -18 -15 -25 -15 -7 0 -18 7 -25 15 -18 22 -41
18 -73 -10z"/>
<path d="M1606 1624 c-3 -9 -6 -86 -6 -173 0 -114 4 -162 13 -175 11 -16 25
-18 99 -15 130 6 128 3 128 211 l0 168 -114 0 c-95 0 -115 -3 -120 -16z m88
-60 c9 -23 7 -47 -4 -64 -9 -13 -11 -13 -20 0 -11 17 -13 63 -3 73 11 11 20 8
27 -9z m94 -8 c5 -24 -6 -66 -18 -66 -13 0 -23 38 -16 66 7 28 29 28 34 0z
m-92 -150 c9 -36 1 -71 -16 -71 -8 0 -16 11 -18 24 -5 30 6 71 18 71 5 0 12
-11 16 -24z m90 0 c9 -36 1 -71 -16 -71 -8 0 -16 11 -18 24 -5 30 6 71 18 71
5 0 12 -11 16 -24z"/>
<path d="M1044 1363 c-3 -10 -10 -28 -16 -39 -15 -31 -6 -60 17 -56 53 8 76
103 27 110 -14 2 -24 -3 -28 -15z"/>
<path d="M1137 1373 c-4 -3 -7 -21 -7 -38 0 -36 26 -65 58 -65 27 0 28 19 5
72 -16 35 -39 48 -56 31z"/>
<path d="M1224 1355 c-12 -47 50 -111 77 -79 10 12 10 19 1 32 -13 18 -16 26
-26 55 -8 27 -45 21 -52 -8z"/>
<path d="M1327 1373 c-14 -14 -6 -64 13 -83 27 -27 60 -26 60 0 0 11 -4 28 -9
38 -5 9 -12 25 -15 35 -5 17 -36 23 -49 10z"/>
</g>
</svg>
