<svg width="190" height="80" viewBox="0 0 190 80" fill="none" xmlns="http://www.w3.org/2000/svg">
<mask id="path-1-outside-1_2_5" maskUnits="userSpaceOnUse" x="0" y="0" width="190" height="80" fill="black">
<rect fill="white" width="190" height="80"/>
<path d="M61.0059 13.2C60.3059 15.4 59.1059 17.4 57.8059 19.3C56.5059 21.3 55.0059 23.2 53.7059 25.1C52.9059 26.3 51.0059 28.6 48.7059 28.3C49.5059 27.1 50.3059 25.8 51.1059 24.2C48.0059 26.4 43.8059 28.9 41.2059 30.1C41.1059 32.4 40.9059 36.2 41.1059 38.8C43.4059 38.2 45.9059 37.4 48.3059 37.6C50.6059 37.8 51.9059 38.5 52.3059 39.7C52.8059 40.9 52.3059 42.4 51.3059 44.2C50.0059 46.3 48.2059 48.2 46.9059 49.6C45.8059 50.8 44.7059 52.1 43.5059 53.3L46.5059 52C47.9059 51.4 49.4059 50.8 51.1059 50.5C52.3059 50.5 53.7059 51.2 54.2059 52.5C54.5059 54 53.5059 55.6 52.6059 56.6C51.7059 57.5 50.9059 58.3 50.0059 59L47.2059 61C46.5059 61.5 45.4059 60.9 46.0059 60L48.7059 57.4C49.5059 56.6 50.4059 55.7 50.9059 54.6C51.0059 54.3 50.6059 54.1 50.5059 54.1C48.1059 54.5 45.8059 55.5 43.5059 56.5C40.3059 57.8 37.3059 60 34.2059 61.7C33.3059 61.7 32.1059 61.4 32.0059 60.5C32.4059 59.2 33.2059 58.5 34.2059 57.9C35.1059 57.3 36.5059 56.3 37.4059 55.5C34.7059 54.7 31.9059 53.1 29.2059 50.8C27.8059 49.7 27.1059 48.8 27.0059 47.7C27.0059 46.9 27.3059 46 28.2059 45C31.2059 42.6 34.5059 40.9 37.8059 39.6V31.4L36.5059 32C35.8059 32.2 35.2059 32.3 34.4059 32.2C33.7059 32.1 33.1059 31.1 33.4059 30.3C34.1059 29.4 34.9059 28.9 35.7059 28.3C36.5059 27.8 37.3059 27.3 37.9059 26.6C38.0059 22.2 38.0059 17.7 38.7059 13.7C38.7059 13.2 39.2059 12.3 40.1059 12.1C40.8059 12.1 41.2059 12.4 41.4059 12.9C41.6059 13.3 41.6059 13.8 41.7059 14.3C41.4059 17.2 41.4059 19.9 41.4059 22.7C44.4059 18.9 47.0059 14.8 48.3059 10.2C49.1059 9 50.3059 9.9 50.7059 10.6C51.1059 11.4 51.0059 12.4 50.8059 13.1C49.9059 15.7 48.3059 18.2 46.5059 20.6C45.0059 22.7 43.2059 24.7 41.5059 26.7C45.1059 25.4 52.5059 20 54.7059 18.3C56.5059 15.8 57.9059 13.2 58.3059 10.2C58.5059 9.2 58.0059 8.5 57.3059 7.8C54.8059 6 50.5059 5.7 46.1059 6.2C40.8059 6.7 35.4059 8.09999 32.4059 9.6C32.5059 12.3 32.6059 15 33.0059 17.6C33.5059 20.3 34.4059 22.8 36.0059 25C36.1059 26 34.9059 26.3 34.1059 26C32.9059 25.5 31.8059 24.4 31.3059 23.1C30.0059 19.6 29.3059 15.6 29.3059 11.5C27.1059 13 26.0059 17.6 25.9059 18.9C25.5059 22.1 26.1059 25.4 27.2059 28C27.5059 29.4 26.8059 30.2 25.5059 29.9C24.8059 29.6 24.2059 29.2 23.7059 28.6C23.1059 28.1 22.7059 27.5 22.2059 27.1C19.4059 24.3 17.2059 21.3 15.4059 18.1C13.5059 14.6 12.0059 11 11.0059 7.19999C10.9059 6.4 11.1059 5.5 11.9059 5.1C12.8059 5 13.7059 5.5 14.0059 6.29999C15.0059 9.6 16.3059 12.7 17.9059 15.7C19.5059 18.6 21.3059 21.3 23.6059 23.8C23.4059 21.2 23.3059 18.3 23.8059 15.6C24.4059 12.8 25.8059 10.1 28.5059 8.3C32.8059 5.39999 37.7059 3.7 43.0059 3.09999C46.8059 2.59999 53.2059 2.5 57.0059 3.99999C59.1059 4.89999 61.0059 6.4 61.7059 8.9C61.7059 10.4 61.4059 11.9 61.0059 13.2ZM78.8059 72.5C75.8059 72.5 73.0059 73.1 70.2059 73.8C67.4059 74.5 64.7059 75.4 61.9059 76.1C57.4059 77.2 52.7059 77.9 47.6059 76.5C43.8059 75.5 39.8059 73.8 35.9059 72.2C34.5059 72.1 33.2059 72.4 31.9059 72.9C30.1059 73.6 28.4059 74.7 26.7059 75.5C24.6059 76.8 21.9059 77.7 19.2059 77.8C17.2059 77.9 15.2059 77.5 13.4059 76.7C9.70586 75 6.00586 73.1 2.80586 70.4C1.90586 68.9 4.30586 67.9 5.60586 68.5C7.40586 69.4 9.20586 70.5 11.0059 71.6C12.7059 72.7 14.5059 73.7 16.4059 74.2C18.4059 74.8 20.6059 74.9 22.8059 73.9C25.7059 72.7 28.7059 71.2 31.8059 70.2C34.5059 69.4 37.3059 69.1 40.2059 70.3C43.7059 71.7 47.1059 73.2 50.7059 74C52.7059 74.5 54.9059 74.6 57.2059 74.3C61.2059 73.7 64.9059 72 68.7059 70.9C72.0059 69.9 75.2059 69.4 78.9059 70.1C80.0059 70.7 79.5059 72 78.8059 72.5ZM48.4059 40.9C46.2059 40.9 42.8059 41.6 41.1059 42.2C41.1059 44.8 41.2059 49.4 41.3059 52C42.7059 50.5 44.2059 49 45.6059 47.4C47.6059 45.1 48.6059 43.4 48.9059 42.3C49.2059 41.4 48.7059 40.9 48.4059 40.9ZM37.7059 52.4V43.3C36.7059 43.7 32.8059 45.5 31.2059 46.8C30.7059 47.3 30.4059 47.8 30.6059 48.1C31.7059 49.5 35.4059 51.8 37.7059 52.4ZM175.473 20.5C173.473 20.3 171.373 20.4 169.373 20.4C167.673 26.2 164.473 32.3 159.973 37.2C156.773 40.7 152.973 43.5 148.473 45.1C147.773 45.7 147.573 46.5 147.573 47.5C149.373 54.9 151.973 62 155.073 68.8C155.173 69.5 155.173 70.4 154.273 70.7C153.173 70.7 152.073 69.7 151.773 68.6C148.573 62 146.073 55.4 144.273 47.7C144.273 46.3 144.473 44.8 145.573 43.9C146.273 43.3 147.073 43 147.773 42.7L149.973 41.9C153.073 40.3 155.673 38.1 157.873 35.6C161.673 31.3 164.073 25.7 165.673 20.5C164.173 20.5 162.473 20.5 160.973 20.8C159.673 23.6 158.373 26.1 156.073 27.7C155.173 28.4 154.273 28.8 153.473 28.7C152.573 28.6 151.773 28 151.173 26.9C150.273 25.5 149.973 23.8 149.573 22.1C145.773 22.8 143.673 23.6 140.073 25.2C139.273 25.5 138.373 25.3 137.973 24.8C137.473 24.2 137.773 23.3 138.873 22.8C140.773 21.8 142.273 21.1 143.873 20.5C145.373 19.9 146.973 19.4 149.073 19C148.473 16.6 148.273 14.2 148.173 13.3C148.073 11.8 148.373 9.6 149.473 8.59999C150.273 7.8 151.473 7.69999 152.773 8.59999C153.973 9.3 154.973 10.6 155.873 12.1C156.173 12.5 156.173 12.9 155.973 13.2C155.773 13.5 155.373 13.7 154.973 13.5L154.273 12.7C153.573 12 152.973 11.4 151.973 11.2C151.473 11.9 151.373 13.1 151.573 14.5L152.273 18.4C154.873 18.1 157.673 17.7 160.373 17.6L165.973 9.4C166.973 8.2 168.273 8.09999 169.173 8.59999C170.173 9.09999 170.873 10.1 170.973 11.4C171.073 12.4 170.973 13.4 170.773 14.5L170.173 17.2C172.473 17.2 174.773 17.3 176.873 18.1C177.773 19.2 176.573 20.2 175.473 20.5ZM186.473 53.3C184.073 58.3 179.973 63 176.173 66.8C173.473 69.5 170.873 71.7 168.873 72.7C168.173 73.1 166.973 72.4 167.373 71.4C168.373 70.6 172.973 66.4 174.573 64.1C170.273 65.9 166.073 68.3 161.773 70.3C160.673 70.6 159.973 69.6 159.573 68.7C159.673 67.4 160.873 66.8 161.673 65.9C161.973 65.7 162.173 65.4 162.373 65.1C163.473 63.1 163.973 61.1 164.573 59C162.673 59.6 160.673 60.7 158.973 62.1C158.473 62.8 158.273 63.7 158.173 64.8C157.173 65 156.673 64.6 156.373 64.1L156.073 63.4L155.573 62.7C155.573 61.1 156.373 60.1 157.373 59.4C158.573 58.5 159.973 57.8 161.373 57.1C162.773 56.6 164.073 56 165.273 55.5C165.373 54.7 165.473 53.8 165.473 52.9C165.473 52 165.373 51.2 164.973 50.4C164.673 49.7 165.673 49.1 166.273 49.2C167.173 49.1 168.073 49.8 168.373 50.7C168.673 51.2 168.773 51.9 168.773 52.6C168.773 53.1 168.773 53.5 168.673 54C170.673 53 172.773 52.5 175.173 52.9C175.973 53.8 175.073 54.6 174.473 54.8C172.173 55.2 170.273 56.4 168.173 57.3C167.573 59.9 166.773 62.5 165.573 65C169.373 63.1 173.173 61.6 177.173 60.6C178.473 59 179.673 57.5 180.773 55.9C181.973 54.3 183.073 52.6 184.073 50.5C184.073 49.7 183.673 49.1 183.073 48.4C180.573 47.3 177.773 46.9 174.773 46.8C169.273 46.5 163.473 46.6 158.273 47.5C156.573 47.8 155.573 47.2 155.373 46.2C155.273 45.2 156.073 44.2 157.673 44.1C161.773 43.7 166.173 43.3 170.573 43.3C174.673 43.3 178.873 43.7 182.673 44.9C185.273 45.8 186.773 46.8 187.373 48.3C187.873 49.8 187.373 51.5 186.473 53.3ZM137.173 41.5L129.073 52.1C128.573 52.7 127.373 52.8 126.573 52.6C126.573 52.7 126.573 52.9 126.673 53.1C126.673 53.5 126.773 53.8 126.873 54.2C127.073 54.9 127.073 55.7 126.073 56.3C125.273 56.3 124.173 55.7 123.773 55C122.673 50.3 121.573 45.5 120.973 40.7L120.173 34.2C119.873 32 119.573 29.9 118.873 27.9C118.773 27 119.473 26.5 120.173 26.3C123.073 27.3 122.973 30.1 123.173 32.5C123.173 33.2 123.273 33.8 123.473 34.4C125.573 33.7 128.573 33.1 131.073 33.4C133.773 33.8 136.073 35.1 135.973 38.5C138.273 36.2 141.173 33.2 143.673 31C144.373 30.6 145.473 30.8 144.673 32C142.473 35.2 139.573 38.3 137.173 41.5ZM128.773 36.4C126.973 36.6 125.173 37.1 123.973 37.7C124.473 41.7 125.273 45.7 126.173 49.6C128.473 47 131.773 43.5 132.673 40C133.573 36.8 131.473 36.2 128.773 36.4ZM153.073 21.6C153.273 22.5 153.573 24 153.873 25C154.073 25.5 154.273 25.6 154.873 25.1C156.273 24 157.073 22.5 157.973 21C156.373 21.2 154.673 21.3 153.073 21.6ZM163.473 17.3C164.573 17.3 165.873 17.3 166.573 17.2C166.973 16.1 167.473 13.6 167.373 12.2C165.873 14 164.773 15.6 163.473 17.3Z"/>
</mask>
<g filter="url(#filter0_i_2_5)">
<path d="M61.0059 13.2C60.3059 15.4 59.1059 17.4 57.8059 19.3C56.5059 21.3 55.0059 23.2 53.7059 25.1C52.9059 26.3 51.0059 28.6 48.7059 28.3C49.5059 27.1 50.3059 25.8 51.1059 24.2C48.0059 26.4 43.8059 28.9 41.2059 30.1C41.1059 32.4 40.9059 36.2 41.1059 38.8C43.4059 38.2 45.9059 37.4 48.3059 37.6C50.6059 37.8 51.9059 38.5 52.3059 39.7C52.8059 40.9 52.3059 42.4 51.3059 44.2C50.0059 46.3 48.2059 48.2 46.9059 49.6C45.8059 50.8 44.7059 52.1 43.5059 53.3L46.5059 52C47.9059 51.4 49.4059 50.8 51.1059 50.5C52.3059 50.5 53.7059 51.2 54.2059 52.5C54.5059 54 53.5059 55.6 52.6059 56.6C51.7059 57.5 50.9059 58.3 50.0059 59L47.2059 61C46.5059 61.5 45.4059 60.9 46.0059 60L48.7059 57.4C49.5059 56.6 50.4059 55.7 50.9059 54.6C51.0059 54.3 50.6059 54.1 50.5059 54.1C48.1059 54.5 45.8059 55.5 43.5059 56.5C40.3059 57.8 37.3059 60 34.2059 61.7C33.3059 61.7 32.1059 61.4 32.0059 60.5C32.4059 59.2 33.2059 58.5 34.2059 57.9C35.1059 57.3 36.5059 56.3 37.4059 55.5C34.7059 54.7 31.9059 53.1 29.2059 50.8C27.8059 49.7 27.1059 48.8 27.0059 47.7C27.0059 46.9 27.3059 46 28.2059 45C31.2059 42.6 34.5059 40.9 37.8059 39.6V31.4L36.5059 32C35.8059 32.2 35.2059 32.3 34.4059 32.2C33.7059 32.1 33.1059 31.1 33.4059 30.3C34.1059 29.4 34.9059 28.9 35.7059 28.3C36.5059 27.8 37.3059 27.3 37.9059 26.6C38.0059 22.2 38.0059 17.7 38.7059 13.7C38.7059 13.2 39.2059 12.3 40.1059 12.1C40.8059 12.1 41.2059 12.4 41.4059 12.9C41.6059 13.3 41.6059 13.8 41.7059 14.3C41.4059 17.2 41.4059 19.9 41.4059 22.7C44.4059 18.9 47.0059 14.8 48.3059 10.2C49.1059 9 50.3059 9.9 50.7059 10.6C51.1059 11.4 51.0059 12.4 50.8059 13.1C49.9059 15.7 48.3059 18.2 46.5059 20.6C45.0059 22.7 43.2059 24.7 41.5059 26.7C45.1059 25.4 52.5059 20 54.7059 18.3C56.5059 15.8 57.9059 13.2 58.3059 10.2C58.5059 9.2 58.0059 8.5 57.3059 7.8C54.8059 6 50.5059 5.7 46.1059 6.2C40.8059 6.7 35.4059 8.09999 32.4059 9.6C32.5059 12.3 32.6059 15 33.0059 17.6C33.5059 20.3 34.4059 22.8 36.0059 25C36.1059 26 34.9059 26.3 34.1059 26C32.9059 25.5 31.8059 24.4 31.3059 23.1C30.0059 19.6 29.3059 15.6 29.3059 11.5C27.1059 13 26.0059 17.6 25.9059 18.9C25.5059 22.1 26.1059 25.4 27.2059 28C27.5059 29.4 26.8059 30.2 25.5059 29.9C24.8059 29.6 24.2059 29.2 23.7059 28.6C23.1059 28.1 22.7059 27.5 22.2059 27.1C19.4059 24.3 17.2059 21.3 15.4059 18.1C13.5059 14.6 12.0059 11 11.0059 7.19999C10.9059 6.4 11.1059 5.5 11.9059 5.1C12.8059 5 13.7059 5.5 14.0059 6.29999C15.0059 9.6 16.3059 12.7 17.9059 15.7C19.5059 18.6 21.3059 21.3 23.6059 23.8C23.4059 21.2 23.3059 18.3 23.8059 15.6C24.4059 12.8 25.8059 10.1 28.5059 8.3C32.8059 5.39999 37.7059 3.7 43.0059 3.09999C46.8059 2.59999 53.2059 2.5 57.0059 3.99999C59.1059 4.89999 61.0059 6.4 61.7059 8.9C61.7059 10.4 61.4059 11.9 61.0059 13.2ZM78.8059 72.5C75.8059 72.5 73.0059 73.1 70.2059 73.8C67.4059 74.5 64.7059 75.4 61.9059 76.1C57.4059 77.2 52.7059 77.9 47.6059 76.5C43.8059 75.5 39.8059 73.8 35.9059 72.2C34.5059 72.1 33.2059 72.4 31.9059 72.9C30.1059 73.6 28.4059 74.7 26.7059 75.5C24.6059 76.8 21.9059 77.7 19.2059 77.8C17.2059 77.9 15.2059 77.5 13.4059 76.7C9.70586 75 6.00586 73.1 2.80586 70.4C1.90586 68.9 4.30586 67.9 5.60586 68.5C7.40586 69.4 9.20586 70.5 11.0059 71.6C12.7059 72.7 14.5059 73.7 16.4059 74.2C18.4059 74.8 20.6059 74.9 22.8059 73.9C25.7059 72.7 28.7059 71.2 31.8059 70.2C34.5059 69.4 37.3059 69.1 40.2059 70.3C43.7059 71.7 47.1059 73.2 50.7059 74C52.7059 74.5 54.9059 74.6 57.2059 74.3C61.2059 73.7 64.9059 72 68.7059 70.9C72.0059 69.9 75.2059 69.4 78.9059 70.1C80.0059 70.7 79.5059 72 78.8059 72.5ZM48.4059 40.9C46.2059 40.9 42.8059 41.6 41.1059 42.2C41.1059 44.8 41.2059 49.4 41.3059 52C42.7059 50.5 44.2059 49 45.6059 47.4C47.6059 45.1 48.6059 43.4 48.9059 42.3C49.2059 41.4 48.7059 40.9 48.4059 40.9ZM37.7059 52.4V43.3C36.7059 43.7 32.8059 45.5 31.2059 46.8C30.7059 47.3 30.4059 47.8 30.6059 48.1C31.7059 49.5 35.4059 51.8 37.7059 52.4ZM175.473 20.5C173.473 20.3 171.373 20.4 169.373 20.4C167.673 26.2 164.473 32.3 159.973 37.2C156.773 40.7 152.973 43.5 148.473 45.1C147.773 45.7 147.573 46.5 147.573 47.5C149.373 54.9 151.973 62 155.073 68.8C155.173 69.5 155.173 70.4 154.273 70.7C153.173 70.7 152.073 69.7 151.773 68.6C148.573 62 146.073 55.4 144.273 47.7C144.273 46.3 144.473 44.8 145.573 43.9C146.273 43.3 147.073 43 147.773 42.7L149.973 41.9C153.073 40.3 155.673 38.1 157.873 35.6C161.673 31.3 164.073 25.7 165.673 20.5C164.173 20.5 162.473 20.5 160.973 20.8C159.673 23.6 158.373 26.1 156.073 27.7C155.173 28.4 154.273 28.8 153.473 28.7C152.573 28.6 151.773 28 151.173 26.9C150.273 25.5 149.973 23.8 149.573 22.1C145.773 22.8 143.673 23.6 140.073 25.2C139.273 25.5 138.373 25.3 137.973 24.8C137.473 24.2 137.773 23.3 138.873 22.8C140.773 21.8 142.273 21.1 143.873 20.5C145.373 19.9 146.973 19.4 149.073 19C148.473 16.6 148.273 14.2 148.173 13.3C148.073 11.8 148.373 9.6 149.473 8.59999C150.273 7.8 151.473 7.69999 152.773 8.59999C153.973 9.3 154.973 10.6 155.873 12.1C156.173 12.5 156.173 12.9 155.973 13.2C155.773 13.5 155.373 13.7 154.973 13.5L154.273 12.7C153.573 12 152.973 11.4 151.973 11.2C151.473 11.9 151.373 13.1 151.573 14.5L152.273 18.4C154.873 18.1 157.673 17.7 160.373 17.6L165.973 9.4C166.973 8.2 168.273 8.09999 169.173 8.59999C170.173 9.09999 170.873 10.1 170.973 11.4C171.073 12.4 170.973 13.4 170.773 14.5L170.173 17.2C172.473 17.2 174.773 17.3 176.873 18.1C177.773 19.2 176.573 20.2 175.473 20.5ZM186.473 53.3C184.073 58.3 179.973 63 176.173 66.8C173.473 69.5 170.873 71.7 168.873 72.7C168.173 73.1 166.973 72.4 167.373 71.4C168.373 70.6 172.973 66.4 174.573 64.1C170.273 65.9 166.073 68.3 161.773 70.3C160.673 70.6 159.973 69.6 159.573 68.7C159.673 67.4 160.873 66.8 161.673 65.9C161.973 65.7 162.173 65.4 162.373 65.1C163.473 63.1 163.973 61.1 164.573 59C162.673 59.6 160.673 60.7 158.973 62.1C158.473 62.8 158.273 63.7 158.173 64.8C157.173 65 156.673 64.6 156.373 64.1L156.073 63.4L155.573 62.7C155.573 61.1 156.373 60.1 157.373 59.4C158.573 58.5 159.973 57.8 161.373 57.1C162.773 56.6 164.073 56 165.273 55.5C165.373 54.7 165.473 53.8 165.473 52.9C165.473 52 165.373 51.2 164.973 50.4C164.673 49.7 165.673 49.1 166.273 49.2C167.173 49.1 168.073 49.8 168.373 50.7C168.673 51.2 168.773 51.9 168.773 52.6C168.773 53.1 168.773 53.5 168.673 54C170.673 53 172.773 52.5 175.173 52.9C175.973 53.8 175.073 54.6 174.473 54.8C172.173 55.2 170.273 56.4 168.173 57.3C167.573 59.9 166.773 62.5 165.573 65C169.373 63.1 173.173 61.6 177.173 60.6C178.473 59 179.673 57.5 180.773 55.9C181.973 54.3 183.073 52.6 184.073 50.5C184.073 49.7 183.673 49.1 183.073 48.4C180.573 47.3 177.773 46.9 174.773 46.8C169.273 46.5 163.473 46.6 158.273 47.5C156.573 47.8 155.573 47.2 155.373 46.2C155.273 45.2 156.073 44.2 157.673 44.1C161.773 43.7 166.173 43.3 170.573 43.3C174.673 43.3 178.873 43.7 182.673 44.9C185.273 45.8 186.773 46.8 187.373 48.3C187.873 49.8 187.373 51.5 186.473 53.3ZM137.173 41.5L129.073 52.1C128.573 52.7 127.373 52.8 126.573 52.6C126.573 52.7 126.573 52.9 126.673 53.1C126.673 53.5 126.773 53.8 126.873 54.2C127.073 54.9 127.073 55.7 126.073 56.3C125.273 56.3 124.173 55.7 123.773 55C122.673 50.3 121.573 45.5 120.973 40.7L120.173 34.2C119.873 32 119.573 29.9 118.873 27.9C118.773 27 119.473 26.5 120.173 26.3C123.073 27.3 122.973 30.1 123.173 32.5C123.173 33.2 123.273 33.8 123.473 34.4C125.573 33.7 128.573 33.1 131.073 33.4C133.773 33.8 136.073 35.1 135.973 38.5C138.273 36.2 141.173 33.2 143.673 31C144.373 30.6 145.473 30.8 144.673 32C142.473 35.2 139.573 38.3 137.173 41.5ZM128.773 36.4C126.973 36.6 125.173 37.1 123.973 37.7C124.473 41.7 125.273 45.7 126.173 49.6C128.473 47 131.773 43.5 132.673 40C133.573 36.8 131.473 36.2 128.773 36.4ZM153.073 21.6C153.273 22.5 153.573 24 153.873 25C154.073 25.5 154.273 25.6 154.873 25.1C156.273 24 157.073 22.5 157.973 21C156.373 21.2 154.673 21.3 153.073 21.6ZM163.473 17.3C164.573 17.3 165.873 17.3 166.573 17.2C166.973 16.1 167.473 13.6 167.373 12.2C165.873 14 164.773 15.6 163.473 17.3Z" fill="white"/>
</g>
<path d="M61.0059 13.2L62.9117 13.8064L62.9146 13.7973L62.9174 13.7882L61.0059 13.2ZM57.8059 19.3L56.1552 18.1706L56.1419 18.1902L56.129 18.21L57.8059 19.3ZM53.7059 25.1L52.0552 23.9706L52.0484 23.9806L52.0418 23.9906L53.7059 25.1ZM48.7059 28.3L47.0418 27.1906L45.2574 29.8671L48.4472 30.2832L48.7059 28.3ZM51.1059 24.2L52.8947 25.0944L49.9484 22.569L51.1059 24.2ZM41.2059 30.1L40.3677 28.2841L39.2607 28.795L39.2077 30.0131L41.2059 30.1ZM41.1059 38.8L39.1118 38.9534L39.2953 41.3393L41.6107 40.7352L41.1059 38.8ZM48.3059 37.6L48.4791 35.6075L48.472 35.6069L48.3059 37.6ZM52.3059 39.7L50.4085 40.3325L50.4316 40.4018L50.4597 40.4692L52.3059 39.7ZM51.3059 44.2L53.0064 45.2527L53.0312 45.2126L53.0542 45.1713L51.3059 44.2ZM46.9059 49.6L45.4402 48.2391L45.4316 48.2485L46.9059 49.6ZM43.5059 53.3L42.0916 51.8858L44.3011 55.1351L43.5059 53.3ZM46.5059 52L45.718 50.1617L45.7106 50.1649L46.5059 52ZM51.1059 50.5V48.5H50.9307L50.7583 48.5304L51.1059 50.5ZM54.2059 52.5L56.167 52.1078L56.1336 51.9409L56.0726 51.782L54.2059 52.5ZM52.6059 56.6L54.0201 58.0142L54.0573 57.977L54.0924 57.9379L52.6059 56.6ZM50.0059 59L51.1683 60.6275L51.2015 60.6038L51.2337 60.5787L50.0059 59ZM47.2059 61L46.0434 59.3725L46.0434 59.3725L47.2059 61ZM46.0059 60L44.6186 58.5594L44.4622 58.71L44.3418 58.8906L46.0059 60ZM48.7059 57.4L50.0931 58.8406L50.1067 58.8276L50.1201 58.8142L48.7059 57.4ZM50.9059 54.6L52.7266 55.4276L52.77 55.332L52.8032 55.2324L50.9059 54.6ZM50.5059 54.1V52.1H50.3403L50.1771 52.1272L50.5059 54.1ZM43.5059 56.5L44.2586 58.3529L44.2811 58.3438L44.3033 58.3341L43.5059 56.5ZM34.2059 61.7V63.7H34.7183L35.1675 63.4536L34.2059 61.7ZM32.0059 60.5L30.0943 59.9118L29.9723 60.3084L30.0181 60.7209L32.0059 60.5ZM34.2059 57.9L35.2349 59.615L35.2757 59.5905L35.3153 59.5641L34.2059 57.9ZM37.4059 55.5L38.7346 56.9948L41.4237 54.6045L37.974 53.5824L37.4059 55.5ZM29.2059 50.8L30.5028 49.2775L30.4726 49.2518L30.4415 49.2274L29.2059 50.8ZM27.0059 47.7H25.0059V47.7907L25.0141 47.8811L27.0059 47.7ZM28.2059 45L26.9565 43.4383L26.8287 43.5405L26.7193 43.6621L28.2059 45ZM37.8059 39.6L38.5389 41.4608L39.8059 40.9617V39.6H37.8059ZM37.8059 31.4H39.8059V28.2742L36.9677 29.5841L37.8059 31.4ZM36.5059 32L37.0553 33.923L37.2038 33.8806L37.344 33.8159L36.5059 32ZM34.4059 32.2L34.123 34.1799L34.1404 34.1824L34.1578 34.1846L34.4059 32.2ZM33.4059 30.3L31.8272 29.0721L31.6402 29.3126L31.5332 29.5978L33.4059 30.3ZM35.7059 28.3L34.6459 26.604L34.5738 26.649L34.5059 26.7L35.7059 28.3ZM37.9059 26.6L39.4244 27.9016L39.8891 27.3594L39.9053 26.6454L37.9059 26.6ZM38.7059 13.7L40.6759 14.0448L40.7059 13.8737V13.7H38.7059ZM40.1059 12.1V10.1H39.8863L39.672 10.1476L40.1059 12.1ZM41.4059 12.9L39.5489 13.6428L39.5798 13.72L39.617 13.7944L41.4059 12.9ZM41.7059 14.3L43.6952 14.5058L43.7264 14.2046L43.667 13.9078L41.7059 14.3ZM41.4059 22.7H39.4059V28.461L42.9756 23.9393L41.4059 22.7ZM48.3059 10.2L46.6418 9.0906L46.467 9.35281L46.3812 9.65608L48.3059 10.2ZM50.7059 10.6L52.4947 9.70557L52.4699 9.65592L52.4423 9.60772L50.7059 10.6ZM50.8059 13.1L52.6958 13.7542L52.7138 13.7023L52.7289 13.6494L50.8059 13.1ZM46.5059 20.6L44.9059 19.4L44.8919 19.4186L44.8784 19.4375L46.5059 20.6ZM41.5059 26.7L39.982 25.4047L35.1105 31.1358L42.1851 28.5811L41.5059 26.7ZM54.7059 18.3L55.9288 19.8826L56.159 19.7047L56.3289 19.4686L54.7059 18.3ZM58.3059 10.2L56.3447 9.80777L56.332 9.87137L56.3234 9.93567L58.3059 10.2ZM57.3059 7.8L58.7201 6.38578L58.6057 6.27143L58.4745 6.17693L57.3059 7.8ZM46.1059 6.2L46.2937 8.19115L46.3127 8.18936L46.3317 8.18721L46.1059 6.2ZM32.4059 9.6L31.5114 7.81115L30.3596 8.38708L30.4072 9.67402L32.4059 9.6ZM33.0059 17.6L31.0291 17.9041L31.0337 17.9342L31.0393 17.9642L33.0059 17.6ZM36.0059 25L37.9959 24.801L37.942 24.2618L37.6233 23.8237L36.0059 25ZM34.1059 26L33.3366 27.8462L33.3699 27.86L33.4036 27.8727L34.1059 26ZM31.3059 23.1L29.431 23.7964L29.435 23.8072L29.4392 23.818L31.3059 23.1ZM29.3059 11.5H31.3059V7.71572L28.1792 9.84754L29.3059 11.5ZM25.9059 18.9L27.8904 19.1481L27.8963 19.1008L27.9 19.0534L25.9059 18.9ZM27.2059 28L29.1615 27.5809L29.1217 27.3954L29.0478 27.2207L27.2059 28ZM25.5059 29.9L24.718 31.7383L24.8822 31.8086L25.0561 31.8488L25.5059 29.9ZM23.7059 28.6L25.2423 27.3196L25.1259 27.18L24.9862 27.0636L23.7059 28.6ZM22.2059 27.1L20.7916 28.5142L20.87 28.5925L20.9565 28.6617L22.2059 27.1ZM15.4059 18.1L13.6482 19.0542L13.6553 19.0674L13.6627 19.0805L15.4059 18.1ZM11.0059 7.19999L9.0213 7.44807L9.03782 7.5802L9.07171 7.70898L11.0059 7.19999ZM11.9059 5.1L11.685 3.11223L11.3305 3.15162L11.0114 3.31114L11.9059 5.1ZM14.0059 6.29999L15.9199 5.71998L15.9012 5.65819L15.8785 5.59774L14.0059 6.29999ZM17.9059 15.7L16.1412 16.6412L16.1478 16.6537L16.1547 16.6662L17.9059 15.7ZM23.6059 23.8L22.134 25.1541L26.0427 29.4027L25.6 23.6466L23.6059 23.8ZM23.8059 15.6L21.8503 15.1809L21.8444 15.2083L21.8393 15.2358L23.8059 15.6ZM28.5059 8.3L29.6153 9.96412L29.6241 9.95814L28.5059 8.3ZM43.0059 3.09999L43.2308 5.0873L43.2488 5.08526L43.2668 5.0829L43.0059 3.09999ZM57.0059 3.99999L57.7937 2.1617L57.7671 2.15031L57.7402 2.13968L57.0059 3.99999ZM61.7059 8.9H63.7059V8.62528L63.6318 8.36073L61.7059 8.9ZM78.8059 72.5V74.5H79.4468L79.9683 74.1275L78.8059 72.5ZM70.2059 73.8L70.6909 75.7403L70.6909 75.7403L70.2059 73.8ZM61.9059 76.1L62.3808 78.0428L62.3909 78.0403L61.9059 76.1ZM47.6059 76.5L48.1353 74.5713L48.1251 74.5685L48.1148 74.5659L47.6059 76.5ZM35.9059 72.2L36.665 70.3497L36.3683 70.2279L36.0484 70.2051L35.9059 72.2ZM31.9059 72.9L31.1879 71.0333L31.181 71.036L31.9059 72.9ZM26.7059 75.5L25.8543 73.6904L25.7506 73.7392L25.6532 73.7995L26.7059 75.5ZM19.2059 77.8L19.1318 75.8014L19.1189 75.8018L19.106 75.8025L19.2059 77.8ZM13.4059 76.7L12.5709 78.5174L12.5822 78.5226L12.5936 78.5276L13.4059 76.7ZM2.80586 70.4L1.09087 71.429L1.26196 71.7141L1.51612 71.9286L2.80586 70.4ZM5.60586 68.5L6.50029 66.7111L6.47234 66.6972L6.44398 66.6841L5.60586 68.5ZM11.0059 71.6L12.0924 69.9209L12.0707 69.9069L12.0488 69.8934L11.0059 71.6ZM16.4059 74.2L16.9806 72.2843L16.9479 72.2745L16.9148 72.2659L16.4059 74.2ZM22.8059 73.9L22.0412 72.052L22.0095 72.0651L21.9783 72.0793L22.8059 73.9ZM31.8059 70.2L31.2377 68.2824L31.2147 68.2892L31.1919 68.2966L31.8059 70.2ZM40.2059 70.3L39.4412 72.148L39.4521 72.1526L39.4631 72.157L40.2059 70.3ZM50.7059 74L51.1909 72.0597L51.1654 72.0533L51.1397 72.0476L50.7059 74ZM57.2059 74.3L57.4645 76.2832L57.4836 76.2807L57.5025 76.2779L57.2059 74.3ZM68.7059 70.9L69.262 72.8211L69.2739 72.8177L69.2859 72.814L68.7059 70.9ZM78.9059 70.1L79.8636 68.3442L79.5871 68.1934L79.2776 68.1349L78.9059 70.1ZM41.1059 42.2L40.4402 40.314L39.1059 40.785V42.2H41.1059ZM41.3059 52L39.3073 52.0769L39.4919 56.8747L42.768 53.3646L41.3059 52ZM45.6059 47.4L47.111 48.717L47.1151 48.7124L45.6059 47.4ZM48.9059 42.3L47.0085 41.6675L46.9909 41.7202L46.9763 41.7738L48.9059 42.3ZM37.7059 52.4L37.201 54.3352L39.7059 54.9887V52.4H37.7059ZM37.7059 43.3H39.7059V40.3459L36.9631 41.443L37.7059 43.3ZM31.2059 46.8L29.9447 45.2478L29.8646 45.3128L29.7916 45.3858L31.2059 46.8ZM30.6059 48.1L28.9418 49.2094L28.985 49.2743L29.0332 49.3356L30.6059 48.1ZM59.1 12.5936C58.4895 14.5125 57.4212 16.3203 56.1552 18.1706L59.4565 20.4294C60.7905 18.4796 62.1223 16.2875 62.9117 13.8064L59.1 12.5936ZM56.129 18.21C55.5098 19.1625 54.8367 20.101 54.1384 21.0612C53.4495 22.0084 52.7261 22.9902 52.0552 23.9706L55.3565 26.2294C55.9856 25.3098 56.6622 24.3916 57.3733 23.4138C58.0751 22.449 58.8019 21.4375 59.4827 20.39L56.129 18.21ZM52.0418 23.9906C51.7027 24.4992 51.1608 25.1892 50.5217 25.6986C49.8687 26.2191 49.3547 26.3677 48.9645 26.3168L48.4472 30.2832C50.3571 30.5323 51.943 29.6809 53.015 28.8264C54.1009 27.9608 54.909 26.9008 55.37 26.2094L52.0418 23.9906ZM50.37 29.4094C51.2014 28.1622 52.0475 26.7888 52.8947 25.0944L49.317 23.3056C48.5642 24.8112 47.8103 26.0378 47.0418 27.1906L50.37 29.4094ZM49.9484 22.569C46.9198 24.7183 42.8275 27.1488 40.3677 28.2841L42.044 31.9159C44.7842 30.6512 49.0919 28.0817 52.2634 25.831L49.9484 22.569ZM39.2077 30.0131C39.1106 32.2481 38.9001 36.2018 39.1118 38.9534L43.1 38.6466C42.9116 36.1982 43.1011 32.5519 43.204 30.1869L39.2077 30.0131ZM41.6107 40.7352C44.1037 40.0849 46.1721 39.4291 48.1398 39.5931L48.472 35.6069C45.6396 35.3709 42.708 36.3151 40.601 36.8648L41.6107 40.7352ZM48.1326 39.5925C49.1429 39.6803 49.7487 39.8662 50.0841 40.0434C50.3711 40.195 50.3978 40.3004 50.4085 40.3325L54.2032 39.0675C53.3939 36.6396 50.9189 35.8197 48.4791 35.6075L48.1326 39.5925ZM50.4597 40.4692C50.4927 40.5485 50.5492 40.7552 50.4281 41.2399C50.3027 41.7414 50.024 42.3891 49.5575 43.2287L53.0542 45.1713C53.5877 44.2109 54.059 43.2086 54.3086 42.2101C54.5625 41.1948 54.619 40.0515 54.152 38.9308L50.4597 40.4692ZM49.6053 43.1473C48.4277 45.0496 46.7744 46.8024 45.4403 48.2391L48.3715 50.9609C49.6374 49.5976 51.584 47.5504 53.0064 45.2527L49.6053 43.1473ZM45.4316 48.2485C44.256 49.5309 43.2543 50.7231 42.0916 51.8858L44.9201 54.7142C46.1574 53.4769 47.3557 52.0691 48.3802 50.9515L45.4316 48.2485ZM44.3011 55.1351L47.3011 53.8351L45.7106 50.1649L42.7106 51.4649L44.3011 55.1351ZM47.2937 53.8383C48.6741 53.2467 49.9952 52.7269 51.4534 52.4696L50.7583 48.5304C48.8165 48.8731 47.1376 49.5533 45.718 50.1617L47.2937 53.8383ZM51.1059 52.5C51.3377 52.5 51.6328 52.5736 51.8894 52.7275C52.1363 52.8756 52.2753 53.052 52.3392 53.218L56.0726 51.782C55.2074 49.5327 52.9261 48.5 51.1059 48.5V52.5ZM52.2447 52.8922C52.2836 53.0867 52.2592 53.4185 52.0362 53.9075C51.8179 54.3861 51.4741 54.8678 51.1193 55.2621L54.0924 57.9379C54.6376 57.3322 55.2438 56.5139 55.6755 55.5675C56.1025 54.6315 56.4281 53.4133 56.167 52.1078L52.2447 52.8922ZM51.1916 55.1858C50.2746 56.1028 49.5625 56.8111 48.778 57.4213L51.2337 60.5787C52.2492 59.7889 53.1371 58.8972 54.0201 58.0142L51.1916 55.1858ZM48.8434 57.3725L46.0434 59.3725L48.3683 62.6275L51.1683 60.6275L48.8434 57.3725ZM46.0434 59.3725C46.3978 59.1194 46.8707 59.112 47.2605 59.3832C47.4883 59.5417 47.7403 59.8395 47.8136 60.2717C47.8877 60.7082 47.7353 61.0113 47.67 61.1094L44.3418 58.8906C43.9764 59.4387 43.7366 60.1543 43.87 60.9408C44.0027 61.723 44.4609 62.3083 44.9762 62.6668C45.941 63.338 47.3139 63.3806 48.3683 62.6275L46.0434 59.3725ZM47.3931 61.4406L50.0931 58.8406L47.3186 55.9594L44.6186 58.5594L47.3931 61.4406ZM50.1201 58.8142C50.8707 58.0636 52.0508 56.9143 52.7266 55.4276L49.0851 53.7724C48.7609 54.4857 48.141 55.1364 47.2916 55.9858L50.1201 58.8142ZM52.8032 55.2324C53.2218 53.9769 52.4777 53.0647 52.0979 52.7323C51.8883 52.549 51.6692 52.4168 51.4735 52.325C51.3597 52.2717 50.9863 52.1 50.5059 52.1V56.1C50.2393 56.1 50.0443 56.0436 49.9845 56.0258C49.8954 55.9993 49.8258 55.9703 49.7757 55.9469C49.68 55.902 49.5734 55.8385 49.4639 55.7427C49.36 55.6518 49.1762 55.4639 49.0493 55.1544C48.9055 54.8039 48.8715 54.3787 49.0085 53.9675L52.8032 55.2324ZM50.1771 52.1272C47.4918 52.5748 44.9641 53.6851 42.7084 54.6659L44.3033 58.3341C46.6477 57.3149 48.7199 56.4252 50.8347 56.0728L50.1771 52.1272ZM42.7531 54.6471C41.0032 55.358 39.3443 56.2995 37.7873 57.2362C36.1855 58.1999 34.7483 59.1215 33.2442 59.9464L35.1675 63.4536C36.7634 62.5785 38.3762 61.5501 39.8494 60.6638C41.3674 59.7505 42.8085 58.942 44.2586 58.3529L42.7531 54.6471ZM34.2059 59.7C34.0875 59.7 33.9597 59.6898 33.8419 59.6691C33.7205 59.6478 33.645 59.6217 33.6131 59.6077C33.5766 59.5915 33.647 59.6139 33.7451 59.7218C33.7975 59.7795 33.8555 59.8594 33.9037 59.9623C33.9525 60.0668 33.9821 60.1754 33.9936 60.2791L30.0181 60.7209C30.1791 62.1701 31.2429 62.934 31.9986 63.2673C32.7562 63.6016 33.5786 63.7 34.2059 63.7V59.7ZM33.9174 61.0882C34.1166 60.4407 34.4613 60.0791 35.2349 59.615L33.1769 56.185C31.9505 56.9209 30.6951 57.9593 30.0943 59.9118L33.9174 61.0882ZM35.3153 59.5641C36.239 58.9483 37.7301 57.8877 38.7346 56.9948L36.0771 54.0052C35.2816 54.7123 33.9728 55.6517 33.0965 56.2359L35.3153 59.5641ZM37.974 53.5824C35.5995 52.8788 33.0412 51.4398 30.5028 49.2775L27.9089 52.3225C30.7706 54.7602 33.8123 56.5212 36.8377 57.4176L37.974 53.5824ZM30.4415 49.2274C29.1349 48.2007 29.019 47.7533 28.9976 47.5189L25.0141 47.8811C25.1928 49.8466 26.4768 51.1993 27.9702 52.3726L30.4415 49.2274ZM29.0059 47.7C29.0059 47.4721 29.0667 47.0332 29.6924 46.3379L26.7193 43.6621C25.545 44.9668 25.0059 46.3279 25.0059 47.7H29.0059ZM29.4553 46.5617C32.2564 44.3209 35.3662 42.7107 38.5389 41.4608L37.0728 37.7392C33.6455 39.0893 30.1554 40.8791 26.9565 43.4383L29.4553 46.5617ZM39.8059 39.6V31.4H35.8059V39.6H39.8059ZM36.9677 29.5841L35.6677 30.1841L37.344 33.8159L38.644 33.2159L36.9677 29.5841ZM35.9564 30.0769C35.42 30.2302 35.1032 30.2716 34.6539 30.2154L34.1578 34.1846C35.3085 34.3284 36.1917 34.1698 37.0553 33.923L35.9564 30.0769ZM34.6887 30.2201C34.9361 30.2554 35.0928 30.3566 35.1635 30.4133C35.2359 30.4713 35.2679 30.5207 35.282 30.5463C35.2942 30.5685 35.3797 30.7324 35.2785 31.0022L31.5332 29.5978C31.132 30.6675 31.3675 31.7315 31.7797 32.4787C32.1723 33.1903 32.9554 34.0131 34.123 34.1799L34.6887 30.2201ZM34.9846 31.5279C35.473 30.8999 35.9605 30.609 36.9059 29.9L34.5059 26.7C33.8512 27.191 32.7387 27.9001 31.8272 29.0721L34.9846 31.5279ZM36.7659 29.996C37.5153 29.5276 38.5908 28.8741 39.4244 27.9016L36.3873 25.2984C36.0209 25.7259 35.4964 26.0724 34.6459 26.604L36.7659 29.996ZM39.9053 26.6454C40.0073 22.1587 40.0089 17.8561 40.6759 14.0448L36.7358 13.3552C36.0028 17.5439 36.0044 22.2413 35.9064 26.5546L39.9053 26.6454ZM40.7059 13.7C40.7059 13.7998 40.6939 13.8714 40.6857 13.9103C40.677 13.9512 40.668 13.9766 40.6638 13.9876C40.6563 14.0071 40.6543 14.006 40.6607 13.9977C40.6781 13.9747 40.6481 14.0283 40.5397 14.0524L39.672 10.1476C38.6636 10.3717 37.9336 10.9753 37.476 11.5773C37.053 12.134 36.7059 12.8983 36.7059 13.7H40.7059ZM40.1059 14.1C40.1711 14.1 40.0433 14.1123 39.8569 13.9916C39.6601 13.8643 39.5729 13.7027 39.5489 13.6428L43.2628 12.1572C43.0388 11.5973 42.6516 11.0357 42.0299 10.6334C41.4184 10.2377 40.7406 10.1 40.1059 10.1V14.1ZM39.617 13.7944C39.5758 13.7121 39.5886 13.6895 39.6178 13.8744C39.6328 13.9693 39.6428 14.0496 39.664 14.2024C39.6827 14.3362 39.7079 14.5081 39.7447 14.6922L43.667 13.9078C43.6234 13.6898 43.6334 13.6595 43.5689 13.2506C43.5231 12.9605 43.4359 12.4879 43.1947 12.0056L39.617 13.7944ZM39.7165 14.0942C39.4043 17.1122 39.4059 19.9123 39.4059 22.7H43.4059C43.4059 19.8877 43.4075 17.2878 43.6952 14.5058L39.7165 14.0942ZM42.9756 23.9393C46.048 20.0476 48.8279 15.707 50.2305 10.7439L46.3812 9.65608C45.1839 13.893 42.7637 17.7524 39.8361 21.4607L42.9756 23.9393ZM49.97 11.3094C49.9732 11.3046 49.8558 11.4724 49.5675 11.564C49.2884 11.6526 49.0656 11.6008 48.9766 11.5686C48.9002 11.541 48.8938 11.5212 48.9324 11.5562C48.9696 11.5898 48.9821 11.6145 48.9694 11.5923L52.4423 9.60772C52.0608 8.93999 51.3248 8.16375 50.3352 7.80639C49.7961 7.61174 49.0983 7.51613 48.3568 7.75162C47.6059 7.99006 47.0385 8.49542 46.6418 9.0906L49.97 11.3094ZM48.917 11.4944C48.9405 11.5414 48.9809 11.6636 48.9809 11.8875C48.9809 12.1074 48.9413 12.3458 48.8828 12.5505L52.7289 13.6494C52.985 12.7533 53.2228 11.1617 52.4947 9.70557L48.917 11.4944ZM48.9159 12.4458C48.1175 14.7523 46.6641 17.0556 44.9059 19.4L48.1059 21.8C49.9476 19.3444 51.6942 16.6477 52.6958 13.7542L48.9159 12.4458ZM44.8784 19.4375C43.443 21.447 41.7344 23.343 39.982 25.4047L43.0297 27.9953C44.6773 26.0569 46.5687 23.953 48.1333 21.7625L44.8784 19.4375ZM42.1851 28.5811C44.2486 27.836 47.1906 26.0221 49.744 24.3116C52.3602 22.559 54.7968 20.7572 55.9288 19.8826L53.483 16.7174C52.4149 17.5428 50.0515 19.291 47.5177 20.9884C44.9211 22.7279 42.3631 24.264 40.8266 24.8189L42.1851 28.5811ZM56.3289 19.4686C58.2158 16.848 59.8259 13.9322 60.2883 10.4643L56.3234 9.93567C55.9858 12.4678 54.796 14.752 53.0828 17.1314L56.3289 19.4686ZM60.267 10.5922C60.6771 8.54165 59.5103 7.17602 58.7201 6.38578L55.8917 9.21422C56.1967 9.51921 56.3043 9.67849 56.343 9.75862C56.3559 9.78521 56.3528 9.78667 56.3509 9.77243C56.3488 9.75708 56.3535 9.76402 56.3447 9.80777L60.267 10.5922ZM58.4745 6.17693C56.8464 5.00471 54.7755 4.41146 52.6617 4.15236C50.5249 3.89042 48.1853 3.95082 45.88 4.21278L46.3317 8.18721C48.4264 7.94917 50.4368 7.90957 52.175 8.12264C53.9362 8.33853 55.2653 8.79529 56.1372 9.42307L58.4745 6.17693ZM45.918 4.20884C40.4679 4.723 34.8047 6.1645 31.5114 7.81115L33.3003 11.3889C36.007 10.0355 41.1439 8.67699 46.2937 8.19115L45.918 4.20884ZM30.4072 9.67402C30.5064 12.3522 30.6085 15.1699 31.0291 17.9041L34.9826 17.2959C34.6033 14.8301 34.5053 12.2477 34.4045 9.52598L30.4072 9.67402ZM31.0393 17.9642C31.5773 20.8695 32.5669 23.6718 34.3884 26.1763L37.6233 23.8237C36.2448 21.9282 35.4344 19.7305 34.9724 17.2358L31.0393 17.9642ZM34.0158 25.199C33.9977 25.0177 34.0375 24.7506 34.2069 24.5C34.3597 24.2741 34.539 24.177 34.6199 24.1431C34.6632 24.125 34.6944 24.1175 34.7106 24.1145C34.7271 24.1113 34.7366 24.111 34.7403 24.111C34.7405 24.111 34.7604 24.1094 34.8081 24.1273L33.4036 27.8727C34.248 28.1893 35.2773 28.2049 36.1668 27.8319C36.6352 27.6354 37.1458 27.2947 37.5205 26.7406C37.9118 26.1619 38.0641 25.4823 37.9959 24.801L34.0158 25.199ZM34.8751 24.1538C34.1766 23.8628 33.4751 23.1687 33.1726 22.382L29.4392 23.818C30.1366 25.6313 31.6351 27.1372 33.3366 27.8462L34.8751 24.1538ZM33.1807 22.4036C31.9694 19.1425 31.3059 15.38 31.3059 11.5H27.3059C27.3059 15.82 28.0423 20.0575 29.431 23.7964L33.1807 22.4036ZM28.1792 9.84754C26.5335 10.9696 25.5304 13.0136 24.9457 14.5728C24.3327 16.2075 23.9792 17.8692 23.9118 18.7466L27.9 19.0534C27.9325 18.6308 28.179 17.3425 28.691 15.9772C29.2313 14.5364 29.8783 13.5304 30.4325 13.1525L28.1792 9.84754ZM23.9213 18.6519C23.473 22.2386 24.1424 25.8921 25.3639 28.7793L29.0478 27.2207C28.0693 24.9079 27.5387 21.9614 27.8904 19.1481L23.9213 18.6519ZM25.2503 28.4191C25.2855 28.5833 25.2707 28.6385 25.2759 28.6065C25.2823 28.5673 25.3176 28.4201 25.461 28.2588C25.6118 28.0892 25.7932 28.0045 25.9243 27.9751C26.0374 27.9497 26.0608 27.9755 25.9556 27.9512L25.0561 31.8488C26.1338 32.0975 27.4971 31.989 28.4507 30.9162C29.3453 29.9098 29.3796 28.5988 29.1615 27.5809L25.2503 28.4191ZM26.2937 28.0617C25.8197 27.8586 25.5 27.6288 25.2423 27.3196L22.1694 29.8804C22.9117 30.7712 23.792 31.3414 24.718 31.7383L26.2937 28.0617ZM24.9862 27.0636C24.8093 26.9161 24.6471 26.7422 24.4014 26.4707C24.1912 26.2383 23.8552 25.8582 23.4553 25.5383L20.9565 28.6617C21.0565 28.7418 21.1705 28.8617 21.4353 29.1543C21.6646 29.4078 22.0024 29.7839 22.4255 30.1364L24.9862 27.0636ZM23.6201 25.6858C20.959 23.0247 18.8669 20.1735 17.149 17.1195L13.6627 19.0805C15.5448 22.4265 17.8527 25.5752 20.7916 28.5142L23.6201 25.6858ZM17.1636 17.1458C15.3279 13.7643 13.8932 10.3133 12.94 6.69101L9.07171 7.70898C10.1185 11.6867 11.6838 15.4357 13.6482 19.0542L17.1636 17.1458ZM12.9904 6.95192C12.981 6.87673 12.9803 6.81071 12.9847 6.75925C12.9891 6.7073 12.9973 6.68538 12.9961 6.68851C12.9942 6.69364 12.9799 6.72963 12.9399 6.77696C12.8969 6.82765 12.8453 6.86633 12.8003 6.88885L11.0114 3.31114C9.0858 4.27396 8.87825 6.3036 9.0213 7.44807L12.9904 6.95192ZM12.1267 7.08777C12.1338 7.08698 12.1454 7.08696 12.1602 7.09006C12.1754 7.09327 12.1877 7.09849 12.1948 7.10254C12.2021 7.10663 12.1969 7.10538 12.1846 7.0915C12.1714 7.07673 12.1502 7.04748 12.1332 7.00225L15.8785 5.59774C15.2164 3.832 13.3742 2.92455 11.685 3.11223L12.1267 7.08777ZM12.0918 6.88001C13.1313 10.3104 14.4824 13.531 16.1412 16.6412L19.6706 14.7588C18.1293 11.869 16.8804 8.88962 15.9199 5.71998L12.0918 6.88001ZM16.1547 16.6662C17.8084 19.6634 19.697 22.5052 22.134 25.1541L25.0777 22.4459C22.9147 20.0948 21.2033 17.5366 19.657 14.7338L16.1547 16.6662ZM25.6 23.6466C25.4026 21.0812 25.322 18.3966 25.7724 15.9642L21.8393 15.2358C21.2897 18.2034 21.4091 21.3188 21.6118 23.9534L25.6 23.6466ZM25.7615 16.0191C26.2838 13.5816 27.4594 11.4014 29.6153 9.9641L27.3965 6.6359C24.1524 8.79864 22.528 12.0184 21.8503 15.1809L25.7615 16.0191ZM29.6241 9.95814C33.632 7.25514 38.2192 5.65466 43.2308 5.0873L42.7809 1.11269C37.1926 1.74533 31.9797 3.54485 27.3876 6.64185L29.6241 9.95814ZM43.2668 5.0829C45.0577 4.84725 47.4942 4.70303 49.9275 4.79846C52.3961 4.89527 54.6821 5.23291 56.2715 5.8603L57.7402 2.13968C55.5296 1.26708 52.7157 0.904724 50.0842 0.801531C47.4175 0.696954 44.754 0.852736 42.745 1.11709L43.2668 5.0829ZM56.218 5.83828C58.0011 6.60247 59.3024 7.73381 59.7799 9.43926L63.6318 8.36073C62.7093 5.06619 60.2106 3.19752 57.7937 2.1617L56.218 5.83828ZM59.7059 8.9C59.7059 10.1468 59.4539 11.443 59.0943 12.6118L62.9174 13.7882C63.3578 12.3569 63.7059 10.6532 63.7059 8.9H59.7059ZM78.8059 70.5C75.5476 70.5 72.549 71.1527 69.7208 71.8597L70.6909 75.7403C73.4627 75.0473 76.0641 74.5 78.8059 74.5V70.5ZM69.7208 71.8597C68.2777 72.2205 66.8663 72.6313 65.4972 73.0296C64.1163 73.4313 62.7777 73.8205 61.4208 74.1597L62.3909 78.0403C63.834 77.6795 65.2454 77.2687 66.6145 76.8704C67.9954 76.4687 69.334 76.0795 70.6909 75.7403L69.7208 71.8597ZM61.431 74.1572C57.0425 75.2299 52.7428 75.8361 48.1353 74.5713L47.0764 78.4287C52.669 79.9639 57.7692 79.1701 62.3808 78.0428L61.431 74.1572ZM48.1148 74.5659C44.4737 73.6077 40.6192 71.9719 36.665 70.3497L35.1467 74.0503C38.9925 75.6281 43.138 77.3923 47.0969 78.4341L48.1148 74.5659ZM36.0484 70.2051C34.2597 70.0773 32.655 70.469 31.1879 71.0333L32.6238 74.7667C33.7567 74.331 34.7521 74.1227 35.7634 74.1949L36.0484 70.2051ZM31.181 71.036C30.1606 71.4328 29.1956 71.9321 28.3232 72.3999C27.4171 72.8858 26.6418 73.3198 25.8543 73.6904L27.5575 77.3096C28.4699 76.8802 29.3946 76.3642 30.2135 75.9251C31.0662 75.4679 31.8511 75.0672 32.6308 74.764L31.181 71.036ZM25.6532 73.7995C23.8282 74.9292 21.4627 75.715 19.1318 75.8014L19.2799 79.7986C22.3491 79.685 25.3836 78.6708 27.7586 77.2005L25.6532 73.7995ZM19.106 75.8025C17.435 75.886 15.7465 75.5516 14.2181 74.8724L12.5936 78.5276C14.6653 79.4484 16.9767 79.914 19.3057 79.7975L19.106 75.8025ZM14.2409 74.8826C10.5761 73.1989 7.08036 71.3898 4.0956 68.8714L1.51612 71.9286C4.93136 74.8102 8.83557 76.8011 12.5709 78.5174L14.2409 74.8826ZM4.52085 69.371C4.53538 69.3952 4.58632 69.4918 4.60334 69.6525C4.62096 69.819 4.59476 69.9871 4.53646 70.1321C4.4302 70.3964 4.28069 70.4507 4.355 70.4092C4.41145 70.3777 4.52601 70.337 4.65945 70.3259C4.80029 70.3142 4.83054 70.3449 4.76774 70.3159L6.44398 66.6841C5.0968 66.0623 3.49235 66.3103 2.40672 66.9158C1.83103 67.2368 1.16902 67.7849 0.825263 68.6398C0.444264 69.5873 0.585206 70.5862 1.09087 71.429L4.52085 69.371ZM4.71143 70.2889C6.42191 71.1441 8.14827 72.1976 9.96296 73.3066L12.0488 69.8934C10.2634 68.8024 8.38981 67.6559 6.50029 66.7111L4.71143 70.2889ZM9.91936 73.2791C11.6725 74.4135 13.6859 75.5523 15.8969 76.1341L16.9148 72.2659C15.3258 71.8477 13.7392 70.9865 12.0924 69.9209L9.91936 73.2791ZM15.8312 76.1157C18.1666 76.8163 20.8848 76.9701 23.6335 75.7207L21.9783 72.0793C20.3269 72.8299 18.6451 72.7837 16.9806 72.2843L15.8312 76.1157ZM23.5706 75.748C26.6596 74.4698 29.4131 73.0733 32.4199 72.1034L31.1919 68.2966C27.9986 69.3267 24.7521 70.9302 22.0412 72.052L23.5706 75.748ZM32.374 72.1176C34.8433 71.3859 37.1291 71.1913 39.4412 72.148L40.9706 68.452C37.4826 67.0087 34.1684 67.4141 31.2377 68.2824L32.374 72.1176ZM39.4631 72.157C42.8661 73.5182 46.4691 75.1073 50.272 75.9524L51.1397 72.0476C47.7426 71.2927 44.5456 69.8818 40.9486 68.443L39.4631 72.157ZM50.2208 75.9403C52.4937 76.5085 54.9486 76.6114 57.4645 76.2832L56.9472 72.3168C54.8632 72.5886 52.9181 72.4915 51.1909 72.0597L50.2208 75.9403ZM57.5025 76.2779C59.678 75.9516 61.7349 75.3319 63.6671 74.6836C65.6552 74.0165 67.4132 73.3563 69.262 72.8211L68.1497 68.9789C66.1985 69.5437 64.2065 70.2835 62.3947 70.8914C60.5268 71.5181 58.7337 72.0484 56.9092 72.3221L57.5025 76.2779ZM69.2859 72.814C72.4005 71.8702 75.2568 71.4451 78.5341 72.0651L79.2776 68.1349C75.1549 67.3549 71.6112 67.9298 68.1258 68.986L69.2859 72.814ZM77.9482 71.8558C77.8846 71.8211 77.7323 71.707 77.6306 71.4824C77.5362 71.2738 77.5435 71.0982 77.5567 71.0174C77.5632 70.9768 77.5721 70.9516 77.5764 70.9408C77.5808 70.9298 77.5836 70.9256 77.5836 70.9255C77.5836 70.9255 77.5851 70.9231 77.5905 70.9172C77.5956 70.9117 77.6116 70.8952 77.6434 70.8725L79.9683 74.1275C80.7273 73.5854 81.3399 72.6765 81.5051 71.6576C81.5932 71.1143 81.563 70.4699 81.2748 69.8332C80.9794 69.1805 80.4771 68.6789 79.8636 68.3442L77.9482 71.8558ZM48.4059 38.9C45.94 38.9 42.3137 39.6528 40.4402 40.314L41.7715 44.086C43.298 43.5472 46.4717 42.9 48.4059 42.9V38.9ZM39.1059 42.2C39.1059 44.8297 39.2065 49.4557 39.3073 52.0769L43.3044 51.9231C43.2052 49.3443 43.1059 44.7703 43.1059 42.2H39.1059ZM42.768 53.3646C44.1002 51.9373 45.6875 50.3439 47.111 48.717L44.1007 46.083C42.7242 47.6561 41.3115 49.0627 39.8437 50.6354L42.768 53.3646ZM47.1151 48.7124C49.161 46.3595 50.4122 44.3781 50.8354 42.8262L46.9763 41.7738C46.7996 42.4219 46.0507 43.8405 44.0967 46.0876L47.1151 48.7124ZM50.8032 42.9325C51.0997 42.0432 51.0652 41.1186 50.6507 40.331C50.3073 39.6785 49.5371 38.9 48.4059 38.9V42.9C47.9531 42.9 47.6394 42.7274 47.4818 42.6135C47.3022 42.4839 47.1841 42.3329 47.111 42.194C46.9465 41.8814 47.0121 41.6568 47.0085 41.6675L50.8032 42.9325ZM39.7059 52.4V43.3H35.7059V52.4H39.7059ZM36.9631 41.443C36.3915 41.6717 35.1096 42.2493 33.7728 42.9306C32.473 43.5929 30.926 44.4504 29.9447 45.2478L32.467 48.3522C33.0857 47.8496 34.2888 47.1571 35.589 46.4944C36.8521 45.8507 38.0202 45.3283 38.4486 45.157L36.9631 41.443ZM29.7916 45.3858C29.4735 45.7039 29.1047 46.1301 28.8545 46.6306C28.6412 47.0572 28.2304 48.1424 28.9418 49.2094L32.27 46.9906C32.5115 47.3529 32.5602 47.7317 32.5385 48.0014C32.5191 48.2415 32.4472 48.3895 32.4322 48.4194C32.407 48.4699 32.4382 48.3961 32.6201 48.2142L29.7916 45.3858ZM29.0332 49.3356C29.8154 50.3311 31.2753 51.4085 32.663 52.2566C34.0873 53.127 35.779 53.9643 37.201 54.3352L38.2107 50.4648C37.3327 50.2357 36.0245 49.623 34.7488 48.8434C33.4364 48.0414 32.4963 47.2689 32.1785 46.8644L29.0332 49.3356ZM175.473 20.5L175.274 22.4901L175.642 22.5269L175.999 22.4295L175.473 20.5ZM169.373 20.4V18.4H167.875L167.454 19.8375L169.373 20.4ZM159.973 37.2L158.5 35.8472L158.497 35.8505L159.973 37.2ZM148.473 45.1L147.803 43.2156L147.453 43.3399L147.171 43.5815L148.473 45.1ZM147.573 47.5H145.573V47.7397L145.63 47.9727L147.573 47.5ZM155.073 68.8L157.053 68.5172L157.012 68.2323L156.893 67.9704L155.073 68.8ZM154.273 70.7V72.7H154.598L154.906 72.5974L154.273 70.7ZM151.773 68.6L153.703 68.0738L153.654 67.8946L153.573 67.7275L151.773 68.6ZM144.273 47.7H142.273V47.9307L142.326 48.1553L144.273 47.7ZM145.573 43.9L146.84 45.4479L146.857 45.4334L146.875 45.4185L145.573 43.9ZM147.773 42.7L147.09 40.8204L147.037 40.8396L146.985 40.8617L147.773 42.7ZM149.973 41.9L150.657 43.7796L150.777 43.7359L150.89 43.6772L149.973 41.9ZM157.873 35.6L156.374 34.2756L156.372 34.2787L157.873 35.6ZM165.673 20.5L167.585 21.0882L168.381 18.5H165.673V20.5ZM160.973 20.8L160.581 18.8388L159.586 19.0378L159.159 19.9578L160.973 20.8ZM156.073 27.7L154.931 26.0582L154.887 26.0886L154.845 26.1213L156.073 27.7ZM153.473 28.7L153.721 26.7154L153.708 26.7137L153.694 26.7122L153.473 28.7ZM151.173 26.9L152.929 25.9423L152.894 25.8791L152.855 25.8185L151.173 26.9ZM149.573 22.1L151.52 21.6419L151.084 19.7881L149.211 20.1331L149.573 22.1ZM140.073 25.2L140.775 27.0727L140.831 27.0518L140.885 27.0276L140.073 25.2ZM137.973 24.8L139.535 23.5506L139.522 23.535L139.509 23.5196L137.973 24.8ZM138.873 22.8L139.701 24.6207L139.753 24.5968L139.805 24.5698L138.873 22.8ZM143.873 20.5L144.575 22.3727L144.596 22.365L144.616 22.357L143.873 20.5ZM149.073 19L149.447 20.9647L151.527 20.5686L151.013 18.5149L149.073 19ZM148.173 13.3L146.177 13.433L146.18 13.477L146.185 13.5209L148.173 13.3ZM149.473 8.59999L150.818 10.0799L150.854 10.0479L150.887 10.0142L149.473 8.59999ZM152.773 8.59999L151.635 10.2444L151.698 10.2885L151.765 10.3276L152.773 8.59999ZM155.873 12.1L154.158 13.129L154.211 13.2175L154.273 13.3L155.873 12.1ZM155.973 13.2L154.309 12.0906L154.309 12.0906L155.973 13.2ZM154.973 13.5L153.468 14.817L153.727 15.113L154.079 15.2889L154.973 13.5ZM154.273 12.7L155.778 11.383L155.734 11.3329L155.687 11.2858L154.273 12.7ZM151.973 11.2L152.365 9.23883L151.097 8.98523L150.346 10.0375L151.973 11.2ZM151.573 14.5L149.593 14.7828L149.598 14.8182L149.605 14.8533L151.573 14.5ZM152.273 18.4L150.305 18.7533L150.636 20.6021L152.502 20.3868L152.273 18.4ZM160.373 17.6L160.447 19.5986L161.456 19.5613L162.025 18.7279L160.373 17.6ZM165.973 9.4L164.437 8.11963L164.375 8.1931L164.321 8.27207L165.973 9.4ZM169.173 8.59999L168.202 10.3483L168.24 10.3694L168.279 10.3888L169.173 8.59999ZM170.973 11.4L168.979 11.5534L168.981 11.5762L168.983 11.599L170.973 11.4ZM170.773 14.5L172.725 14.9339L172.734 14.896L172.741 14.8578L170.773 14.5ZM170.173 17.2L168.221 16.7661L167.68 19.2H170.173V17.2ZM176.873 18.1L178.421 16.8335L178.083 16.4208L177.585 16.231L176.873 18.1ZM186.473 53.3L184.684 52.4056L184.677 52.42L184.67 52.4345L186.473 53.3ZM176.173 66.8L177.587 68.2142L177.587 68.2142L176.173 66.8ZM168.873 72.7L167.979 70.9111L167.929 70.936L167.881 70.9635L168.873 72.7ZM167.373 71.4L166.124 69.8383L165.712 70.1677L165.516 70.6572L167.373 71.4ZM174.573 64.1L176.215 65.2421L180.138 59.6022L173.801 62.2551L174.573 64.1ZM161.773 70.3L162.299 72.2295L162.463 72.1849L162.617 72.1134L161.773 70.3ZM159.573 68.7L157.579 68.5466L157.54 69.0505L157.745 69.5123L159.573 68.7ZM161.673 65.9L160.564 64.2359L160.349 64.3788L160.178 64.5713L161.673 65.9ZM162.373 65.1L164.037 66.2094L164.084 66.1385L164.125 66.0638L162.373 65.1ZM164.573 59L166.496 59.5494L167.518 55.9727L163.971 57.0928L164.573 59ZM158.973 62.1L157.702 60.5561L157.499 60.7234L157.346 60.9375L158.973 62.1ZM158.173 64.8L158.565 66.7612L160.03 66.4683L160.165 64.9811L158.173 64.8ZM156.373 64.1L154.535 64.8878L154.588 65.0126L154.658 65.129L156.373 64.1ZM156.073 63.4L157.911 62.6122L157.826 62.4134L157.701 62.2375L156.073 63.4ZM155.573 62.7H153.573V63.3409L153.946 63.8625L155.573 62.7ZM157.373 59.4L158.52 61.0385L158.547 61.0197L158.573 61L157.373 59.4ZM161.373 57.1L160.7 55.2165L160.587 55.2571L160.479 55.3111L161.373 57.1ZM165.273 55.5L166.042 57.3462L167.114 56.8997L167.258 55.7481L165.273 55.5ZM164.973 50.4L163.135 51.1878L163.158 51.2419L163.184 51.2944L164.973 50.4ZM166.273 49.2L165.944 51.1728L166.218 51.2184L166.494 51.1878L166.273 49.2ZM168.373 50.7L166.476 51.3324L166.545 51.5407L166.658 51.729L168.373 50.7ZM168.673 54L166.712 53.6078L165.91 57.6176L169.567 55.7889L168.673 54ZM175.173 52.9L176.668 51.5713L176.199 51.0433L175.502 50.9272L175.173 52.9ZM174.473 54.8L174.816 56.7704L174.963 56.7447L175.106 56.6974L174.473 54.8ZM168.173 57.3L167.385 55.4617L166.452 55.8615L166.224 56.8503L168.173 57.3ZM165.573 65L163.77 64.1345L161.242 69.4017L166.467 66.7889L165.573 65ZM177.173 60.6L177.658 62.5403L178.305 62.3786L178.725 61.8612L177.173 60.6ZM180.773 55.9L179.173 54.7L179.148 54.733L179.125 54.7669L180.773 55.9ZM184.073 50.5L185.879 51.3599L186.073 50.9519V50.5H184.073ZM183.073 48.4L184.592 47.0984L184.295 46.7527L183.879 46.5694L183.073 48.4ZM174.773 46.8L174.664 48.797L174.685 48.7982L174.706 48.7989L174.773 46.8ZM158.273 47.5L157.932 45.5293L157.925 45.5304L158.273 47.5ZM155.373 46.2L153.383 46.399L153.393 46.4963L153.412 46.5922L155.373 46.2ZM157.673 44.1L157.798 46.0961L157.833 46.0939L157.867 46.0905L157.673 44.1ZM182.673 44.9L183.327 43.01L183.301 43.0011L183.275 42.9928L182.673 44.9ZM187.373 48.3L189.27 47.6675L189.252 47.6118L189.23 47.5572L187.373 48.3ZM137.173 41.5L138.762 42.7143L138.768 42.7072L138.773 42.7L137.173 41.5ZM129.073 52.1L130.609 53.3804L130.637 53.3479L130.662 53.3143L129.073 52.1ZM126.573 52.6L127.058 50.6597L124.573 50.0385V52.6H126.573ZM126.673 53.1H128.673V52.6279L128.462 52.2056L126.673 53.1ZM126.873 54.2L124.933 54.6851L124.941 54.7174L124.95 54.7494L126.873 54.2ZM126.073 56.3V58.3H126.627L127.102 58.015L126.073 56.3ZM123.773 55L121.826 55.4558L121.892 55.7394L122.037 55.9923L123.773 55ZM120.973 40.7L118.988 40.9443L118.988 40.9481L120.973 40.7ZM120.173 34.2L122.158 33.9557L122.156 33.9427L122.155 33.9298L120.173 34.2ZM118.873 27.9L116.885 28.1209L116.91 28.3465L116.985 28.5607L118.873 27.9ZM120.173 26.3L120.825 24.4093L120.229 24.2039L119.624 24.3769L120.173 26.3ZM123.173 32.5H125.173V32.4168L125.166 32.3339L123.173 32.5ZM123.473 34.4L121.576 35.0325L122.208 36.9298L124.106 36.2974L123.473 34.4ZM131.073 33.4L131.366 31.4216L131.339 31.4175L131.311 31.4142L131.073 33.4ZM135.973 38.5L133.974 38.4412L133.826 43.4756L137.387 39.9142L135.973 38.5ZM143.673 31L142.681 29.2635L142.504 29.3643L142.352 29.4986L143.673 31ZM144.673 32L146.321 33.1331L146.329 33.1213L146.337 33.1094L144.673 32ZM128.773 36.4L128.625 34.4055L128.589 34.4082L128.552 34.4122L128.773 36.4ZM123.973 37.7L123.079 35.9111L121.813 36.544L121.988 37.9481L123.973 37.7ZM126.173 49.6L124.224 50.0497L125.098 53.8342L127.671 50.9251L126.173 49.6ZM132.673 40L130.748 39.4585L130.742 39.4801L130.736 39.5019L132.673 40ZM153.073 21.6L152.704 19.6343L150.672 20.0153L151.121 22.0339L153.073 21.6ZM153.873 25L151.957 25.5747L151.983 25.66L152.016 25.7428L153.873 25ZM154.873 25.1L153.637 23.5274L153.615 23.5451L153.593 23.5636L154.873 25.1ZM157.973 21L159.688 22.029L161.802 18.5058L157.725 19.0154L157.973 21ZM163.473 17.3L161.884 16.0851L159.426 19.3H163.473V17.3ZM166.573 17.2L166.856 19.1799L168.043 19.0103L168.453 17.8835L166.573 17.2ZM167.373 12.2L169.368 12.0575L169.014 7.10637L165.837 10.9196L167.373 12.2ZM175.672 18.5099C173.54 18.2967 171.24 18.4 169.373 18.4V22.4C171.506 22.4 173.406 22.3033 175.274 22.4901L175.672 18.5099ZM167.454 19.8375C165.831 25.3729 162.773 31.1946 158.5 35.8472L161.446 38.5528C166.173 33.4054 169.515 27.0271 171.292 20.9625L167.454 19.8375ZM158.497 35.8505C155.47 39.1608 151.935 41.7466 147.803 43.2156L149.143 46.9844C154.012 45.2534 158.076 42.2392 161.449 38.5495L158.497 35.8505ZM147.171 43.5815C145.83 44.7314 145.573 46.241 145.573 47.5H149.573C149.573 47.1188 149.613 46.9121 149.652 46.8002C149.68 46.7196 149.709 46.6751 149.775 46.6185L147.171 43.5815ZM145.63 47.9727C147.465 55.5165 150.111 62.7365 153.253 69.6296L156.893 67.9704C153.835 61.2635 151.281 54.2835 149.516 47.0273L145.63 47.9727ZM153.093 69.0828C153.11 69.2036 153.117 69.29 153.117 69.35C153.117 69.4126 153.11 69.4047 153.125 69.3506C153.143 69.2879 153.193 69.1608 153.312 69.0297C153.437 68.8923 153.569 68.8265 153.641 68.8026L154.906 72.5974C156.054 72.2146 156.712 71.3574 156.971 70.4494C157.191 69.679 157.112 68.9321 157.053 68.5172L153.093 69.0828ZM154.273 68.7C154.321 68.7 154.217 68.7092 154.028 68.547C153.845 68.3894 153.736 68.1968 153.703 68.0738L149.844 69.1262C150.11 70.1032 150.701 70.9606 151.418 71.578C152.13 72.1908 153.125 72.7 154.273 72.7V68.7ZM153.573 67.7275C150.427 61.2401 147.982 54.7799 146.221 47.2447L142.326 48.1553C144.164 56.0201 146.719 62.7599 149.973 69.4725L153.573 67.7275ZM146.273 47.7C146.273 46.3238 146.516 45.7126 146.84 45.4479L144.307 42.3521C142.43 43.8874 142.273 46.2762 142.273 47.7H146.273ZM146.875 45.4185C147.288 45.0641 147.747 44.8873 148.561 44.5383L146.985 40.8617C146.399 41.1127 145.258 41.5359 144.271 42.3815L146.875 45.4185ZM148.457 44.5796L150.657 43.7796L149.29 40.0204L147.09 40.8204L148.457 44.5796ZM150.89 43.6772C154.252 41.9419 157.043 39.5705 159.374 36.9213L156.372 34.2787C154.303 36.6295 151.894 38.658 149.056 40.1228L150.89 43.6772ZM159.372 36.9244C163.444 32.3157 165.949 26.4041 167.585 21.0882L163.761 19.9118C162.197 24.9959 159.902 30.2843 156.374 34.2756L159.372 36.9244ZM165.673 18.5C164.217 18.5 162.31 18.4929 160.581 18.8388L161.365 22.7612C162.636 22.5071 164.129 22.5 165.673 22.5V18.5ZM159.159 19.9578C157.845 22.7878 156.734 24.8037 154.931 26.0582L157.215 29.3418C160.012 27.3963 161.501 24.4122 162.787 21.6422L159.159 19.9578ZM154.845 26.1213C154.496 26.393 154.208 26.5568 153.993 26.643C153.778 26.7288 153.7 26.7128 153.721 26.7154L153.225 30.6846C154.828 30.885 156.272 30.0791 157.301 29.2787L154.845 26.1213ZM153.694 26.7122C153.632 26.7054 153.55 26.683 153.435 26.5936C153.309 26.496 153.126 26.303 152.929 25.9423L149.417 27.8577C150.226 29.3407 151.514 30.4946 153.252 30.6878L153.694 26.7122ZM152.855 25.8185C152.191 24.7847 151.965 23.5321 151.52 21.6419L147.626 22.5581C147.981 24.0679 148.355 26.2153 149.491 27.9815L152.855 25.8185ZM149.211 20.1331C145.199 20.8722 142.939 21.7374 139.261 23.3724L140.885 27.0276C144.407 25.4626 146.348 24.7278 149.935 24.0669L149.211 20.1331ZM139.371 23.3273C139.354 23.3336 139.333 23.3385 139.31 23.3403C139.287 23.3421 139.27 23.3399 139.265 23.3388C139.259 23.3376 139.28 23.3404 139.323 23.3639C139.365 23.3871 139.448 23.4418 139.535 23.5506L136.411 26.0494C137.491 27.399 139.396 27.59 140.775 27.0727L139.371 23.3273ZM139.509 23.5196C139.611 23.641 139.699 23.8148 139.728 24.0243C139.758 24.231 139.721 24.4066 139.671 24.5272C139.576 24.756 139.475 24.7231 139.701 24.6207L138.045 20.9793C137.171 21.3769 136.37 22.044 135.975 22.9978C135.554 24.0163 135.69 25.1845 136.437 26.0804L139.509 23.5196ZM139.805 24.5698C141.658 23.5943 143.078 22.934 144.575 22.3727L143.171 18.6273C141.468 19.266 139.888 20.0057 137.942 21.0302L139.805 24.5698ZM144.616 22.357C146.001 21.8029 147.478 21.3398 149.447 20.9647L148.699 17.0353C146.468 17.4602 144.745 17.9971 143.13 18.643L144.616 22.357ZM151.013 18.5149C150.454 16.2775 150.268 14.0401 150.161 13.0791L146.185 13.5209C146.279 14.3599 146.492 16.9225 147.133 19.4851L151.013 18.5149ZM150.169 13.167C150.13 12.5895 150.171 11.8634 150.321 11.2143C150.483 10.5185 150.706 10.1822 150.818 10.0799L148.128 7.12012C147.14 8.01781 146.663 9.28145 146.425 10.3107C146.175 11.3866 146.116 12.5105 146.177 13.433L150.169 13.167ZM150.887 10.0142C150.924 9.97773 150.945 9.96821 150.948 9.96691C150.95 9.96619 150.957 9.96252 150.98 9.962C151.025 9.961 151.244 9.97366 151.635 10.2444L153.911 6.95561C153.003 6.32633 151.971 5.93899 150.891 5.96299C149.785 5.98758 148.802 6.44272 148.059 7.18578L150.887 10.0142ZM151.765 10.3276C152.507 10.76 153.292 11.6851 154.158 13.129L157.588 11.071C156.654 9.51492 155.439 7.84 153.781 6.87244L151.765 10.3276ZM154.273 13.3C154.23 13.2427 154.132 13.0802 154.115 12.8205C154.097 12.5533 154.173 12.2939 154.309 12.0906L157.637 14.3094C158.376 13.2013 158.204 11.8742 157.473 10.9L154.273 13.3ZM154.309 12.0906C154.425 11.9172 154.608 11.7496 154.875 11.654C155.181 11.545 155.549 11.552 155.867 11.7111L154.079 15.2889C155.633 16.0663 157.05 15.1903 157.637 14.3094L154.309 12.0906ZM156.478 12.183L155.778 11.383L152.768 14.017L153.468 14.817L156.478 12.183ZM155.687 11.2858C155.033 10.6319 154.039 9.57349 152.365 9.23883L151.581 13.1612C151.908 13.2265 152.113 13.3681 152.859 14.1142L155.687 11.2858ZM150.346 10.0375C149.828 10.7627 149.607 11.6073 149.523 12.3666C149.437 13.1425 149.477 13.9688 149.593 14.7828L153.553 14.2172C153.469 13.6312 153.46 13.1574 153.498 12.8084C153.539 12.4427 153.618 12.3373 153.601 12.3625L150.346 10.0375ZM149.605 14.8533L150.305 18.7533L154.242 18.0467L153.542 14.1467L149.605 14.8533ZM152.502 20.3868C155.179 20.078 157.85 19.6948 160.447 19.5986L160.299 15.6014C157.496 15.7052 154.567 16.122 152.044 16.4132L152.502 20.3868ZM162.025 18.7279L167.625 10.5279L164.321 8.27207L158.721 16.4721L162.025 18.7279ZM167.509 10.6804C167.745 10.3975 167.93 10.3383 168.003 10.3237C168.09 10.3062 168.158 10.3238 168.202 10.3483L170.144 6.85168C168.366 5.86357 166.023 6.21622 164.437 8.11963L167.509 10.6804ZM168.279 10.3888C168.623 10.561 168.93 10.9229 168.979 11.5534L172.967 11.2466C172.816 9.27714 171.723 7.63898 170.067 6.81114L168.279 10.3888ZM168.983 11.599C169.057 12.3353 168.99 13.1284 168.805 14.1422L172.741 14.8578C172.956 13.6716 173.089 12.4646 172.963 11.201L168.983 11.599ZM168.821 14.0661L168.221 16.7661L172.125 17.6339L172.725 14.9339L168.821 14.0661ZM170.173 19.2C172.46 19.2 174.434 19.3111 176.161 19.969L177.585 16.231C175.112 15.2889 172.486 15.2 170.173 15.2V19.2ZM175.325 19.3665C175.309 19.3464 175.185 19.171 175.189 18.8722C175.192 18.5937 175.304 18.4247 175.334 18.3851C175.36 18.3519 175.344 18.3835 175.247 18.4419C175.157 18.4967 175.047 18.5431 174.947 18.5705L175.999 22.4295C176.832 22.2023 177.844 21.6879 178.512 20.8149C178.867 20.3503 179.179 19.7063 179.189 18.9216C179.198 18.1165 178.887 17.4036 178.421 16.8335L175.325 19.3665ZM184.67 52.4345C182.42 57.122 178.516 61.6286 174.759 65.3858L177.587 68.2142C181.43 64.3714 185.726 59.478 188.276 54.1655L184.67 52.4345ZM174.759 65.3858C172.072 68.0727 169.666 70.0672 167.979 70.9111L169.767 74.4889C172.08 73.3328 174.874 70.9273 177.587 68.2142L174.759 65.3858ZM167.881 70.9635C168.143 70.8137 168.385 70.8033 168.53 70.821C168.673 70.8385 168.795 70.8897 168.901 70.9679C169.009 71.048 169.154 71.1993 169.236 71.4444C169.327 71.7149 169.298 71.9727 169.23 72.1428L165.516 70.6572C164.921 72.1455 165.585 73.4898 166.52 74.1821C167.328 74.7806 168.662 75.1238 169.865 74.4365L167.881 70.9635ZM168.622 72.9617C169.198 72.5012 170.652 71.1985 172.144 69.7448C173.614 68.3121 175.293 66.5674 176.215 65.2421L172.931 62.9579C172.253 63.9326 170.832 65.4379 169.352 66.8802C167.894 68.3015 166.548 69.4988 166.124 69.8383L168.622 72.9617ZM173.801 62.2551C171.58 63.1849 169.4 64.263 167.27 65.3404C165.122 66.4272 163.041 67.5047 160.93 68.4866L162.617 72.1134C164.805 71.0953 166.974 69.9728 169.076 68.9096C171.196 67.837 173.267 66.8151 175.345 65.9449L173.801 62.2551ZM161.247 68.3705C161.273 68.3633 161.321 68.3541 161.385 68.3543C161.45 68.3545 161.516 68.3642 161.578 68.3821C161.701 68.4178 161.756 68.4701 161.746 68.4609C161.732 68.4487 161.683 68.399 161.612 68.2879C161.542 68.1799 161.47 68.0444 161.401 67.8877L157.745 69.5123C157.99 70.0616 158.404 70.8369 159.075 71.4391C159.826 72.1122 160.956 72.596 162.299 72.2295L161.247 68.3705ZM161.567 68.8534C161.568 68.8374 161.569 68.8301 161.584 68.8036C161.606 68.7626 161.661 68.6819 161.796 68.543C161.941 68.3933 162.103 68.2511 162.357 68.0235C162.584 67.8194 162.885 67.5468 163.168 67.2287L160.178 64.5713C160.061 64.7032 159.912 64.8431 159.686 65.0452C159.487 65.2239 159.193 65.4817 158.925 65.757C158.36 66.3398 157.68 67.2327 157.579 68.5466L161.567 68.8534ZM162.782 67.5641C163.471 67.105 163.878 66.4478 164.037 66.2094L160.709 63.9906C160.657 64.069 160.62 64.1238 160.585 64.1742C160.551 64.2224 160.528 64.2522 160.513 64.271C160.482 64.3087 160.499 64.2788 160.564 64.2359L162.782 67.5641ZM164.125 66.0638C165.359 63.8202 165.921 61.5619 166.496 59.5494L162.65 58.4506C162.025 60.6381 161.587 62.3798 160.621 64.1362L164.125 66.0638ZM163.971 57.0928C161.808 57.776 159.583 59.0064 157.702 60.5561L160.244 63.6439C161.763 62.3936 163.539 61.424 165.175 60.9072L163.971 57.0928ZM157.346 60.9375C156.525 62.0867 156.289 63.4337 156.181 64.6189L160.165 64.9811C160.257 63.9663 160.421 63.5133 160.601 63.2625L157.346 60.9375ZM157.781 62.8388C157.687 62.8576 157.662 62.8507 157.69 62.8533C157.723 62.8562 157.791 62.8688 157.873 62.9082C158.049 62.9922 158.109 63.106 158.088 63.071L154.658 65.129C154.937 65.594 155.397 66.1578 156.148 66.5168C156.91 66.8814 157.743 66.9256 158.565 66.7612L157.781 62.8388ZM158.211 63.3122L157.911 62.6122L154.235 64.1878L154.535 64.8878L158.211 63.3122ZM157.701 62.2375L157.201 61.5375L153.946 63.8625L154.446 64.5625L157.701 62.2375ZM157.573 62.7C157.573 61.9326 157.888 61.4809 158.52 61.0385L156.226 57.7615C154.858 58.7191 153.573 60.2674 153.573 62.7H157.573ZM158.573 61C159.603 60.2274 160.835 59.6052 162.267 58.8889L160.479 55.3111C159.111 55.9948 157.543 56.7726 156.173 57.8L158.573 61ZM162.046 58.9835C163.509 58.4608 164.934 57.8078 166.042 57.3462L164.504 53.6538C163.212 54.1922 162.037 54.7392 160.7 55.2165L162.046 58.9835ZM167.258 55.7481C167.359 54.9392 167.473 53.9336 167.473 52.9H163.473C163.473 53.6664 163.387 54.4608 163.288 55.2519L167.258 55.7481ZM167.473 52.9C167.473 51.8475 167.357 50.6966 166.762 49.5056L163.184 51.2944C163.389 51.7034 163.473 52.1525 163.473 52.9H167.473ZM166.811 49.6122C166.957 49.9517 166.947 50.3332 166.823 50.6426C166.719 50.9044 166.57 51.0344 166.518 51.075C166.459 51.1215 166.409 51.1443 166.36 51.1592C166.325 51.1701 166.178 51.2118 165.944 51.1728L166.602 47.2272C165.619 47.0634 164.667 47.4448 164.053 47.925C163.417 48.4228 162.473 49.6426 163.135 51.1878L166.811 49.6122ZM166.494 51.1878C166.425 51.1954 166.377 51.1851 166.356 51.179C166.338 51.1734 166.344 51.1719 166.365 51.1878C166.387 51.2036 166.413 51.228 166.435 51.2592C166.458 51.2902 166.47 51.3168 166.476 51.3324L170.27 50.0675C169.744 48.4876 168.097 46.985 166.052 47.2122L166.494 51.1878ZM166.658 51.729C166.652 51.7191 166.688 51.7786 166.722 51.9527C166.754 52.1205 166.773 52.3385 166.773 52.6H170.773C170.773 51.7914 170.672 50.6444 170.088 49.671L166.658 51.729ZM166.773 52.6C166.773 53.1093 166.768 53.3256 166.712 53.6078L170.634 54.3922C170.778 53.6744 170.773 53.0907 170.773 52.6H166.773ZM169.567 55.7889C171.281 54.9321 172.952 54.5574 174.844 54.8728L175.502 50.9272C172.594 50.4426 170.065 51.0679 167.779 52.2111L169.567 55.7889ZM173.678 54.2287C173.651 54.1983 173.521 54.0293 173.494 53.7309C173.467 53.4378 173.557 53.212 173.627 53.0929C173.69 52.9867 173.746 52.9472 173.748 52.9453C173.751 52.9433 173.772 52.9256 173.841 52.9026L175.106 56.6974C175.762 56.4785 176.575 55.9659 177.069 55.1321C177.339 54.6755 177.542 54.0685 177.477 53.366C177.412 52.6582 177.095 52.0517 176.668 51.5713L173.678 54.2287ZM174.13 52.8296C172.742 53.0711 171.517 53.5472 170.425 54.0395C169.884 54.2838 169.348 54.5451 168.852 54.784C168.345 55.0283 167.867 55.2554 167.385 55.4617L168.961 59.1383C169.53 58.8946 170.076 58.6342 170.588 58.3879C171.11 58.1362 171.587 57.9037 172.071 57.6855C173.03 57.2528 173.904 56.9289 174.816 56.7704L174.13 52.8296ZM166.224 56.8503C165.645 59.3586 164.887 61.808 163.77 64.1345L167.376 65.8655C168.659 63.192 169.501 60.4414 170.122 57.7497L166.224 56.8503ZM166.467 66.7889C170.166 64.9395 173.828 63.4978 177.658 62.5403L176.688 58.6597C172.518 59.7022 168.58 61.2605 164.679 63.2111L166.467 66.7889ZM178.725 61.8612C180.025 60.261 181.271 58.7058 182.421 57.0331L179.125 54.7669C178.075 56.2942 176.921 57.739 175.621 59.3388L178.725 61.8612ZM182.373 57.1C183.634 55.4182 184.81 53.6046 185.879 51.3599L182.267 49.6401C181.336 51.5954 180.312 53.1818 179.173 54.7L182.373 57.1ZM186.073 50.5C186.073 48.9299 185.235 47.849 184.592 47.0984L181.555 49.7016C181.828 50.0208 181.956 50.2052 182.023 50.3331C182.071 50.4265 182.073 50.4629 182.073 50.5H186.073ZM183.879 46.5694C181.045 45.3227 177.956 44.905 174.84 44.8011L174.706 48.7989C177.59 48.895 180.101 49.2773 182.268 50.2306L183.879 46.5694ZM174.882 44.803C169.298 44.4984 163.334 44.5943 157.932 45.5293L158.614 49.4707C163.612 48.6057 169.248 48.5016 174.664 48.797L174.882 44.803ZM157.925 45.5304C157.339 45.634 157.126 45.5343 157.136 45.5395C157.15 45.5461 157.202 45.5766 157.254 45.6447C157.307 45.7124 157.328 45.7761 157.334 45.8078L153.412 46.5922C153.634 47.7052 154.336 48.6248 155.385 49.1355C156.37 49.6157 157.507 49.666 158.621 49.4696L157.925 45.5304ZM157.363 46.001C157.368 46.0494 157.362 46.1014 157.344 46.1485C157.327 46.1959 157.306 46.2209 157.3 46.2267C157.281 46.245 157.39 46.1216 157.798 46.0961L157.548 42.1039C155.139 42.2544 153.14 43.9733 153.383 46.399L157.363 46.001ZM157.867 46.0905C161.969 45.6904 166.281 45.3 170.573 45.3V41.3C166.065 41.3 161.577 41.7096 157.479 42.1095L157.867 46.0905ZM170.573 45.3C174.56 45.3 178.537 45.6912 182.071 46.8072L183.275 42.9928C179.209 41.7088 174.786 41.3 170.573 41.3V45.3ZM182.019 46.79C184.533 47.6602 185.264 48.4116 185.516 49.0428L189.23 47.5572C188.282 45.1884 186.013 43.9398 183.327 43.01L182.019 46.79ZM185.476 48.9325C185.705 49.6208 185.549 50.6757 184.684 52.4056L188.262 54.1944C189.197 52.3243 190.041 49.9792 189.27 47.6675L185.476 48.9325ZM135.584 40.2857L127.484 50.8857L130.662 53.3143L138.762 42.7143L135.584 40.2857ZM127.537 50.8196C127.645 50.6898 127.74 50.6464 127.742 50.6452C127.746 50.6432 127.707 50.6609 127.615 50.6758C127.527 50.6901 127.421 50.6967 127.311 50.6922C127.2 50.6878 127.112 50.6731 127.058 50.6597L126.088 54.5403C126.756 54.7073 127.53 54.7418 128.256 54.6242C128.932 54.5146 129.915 54.2135 130.609 53.3804L127.537 50.8196ZM124.573 52.6C124.573 52.7175 124.556 53.3386 124.884 53.9944L128.462 52.2056C128.531 52.3436 128.556 52.4618 128.565 52.5297C128.575 52.5945 128.573 52.6431 128.573 52.6H124.573ZM124.673 53.1C124.673 53.8157 124.872 54.4401 124.933 54.6851L128.813 53.7149C128.786 53.6053 128.754 53.4859 128.736 53.4149C128.714 53.3315 128.701 53.2765 128.691 53.2309C128.674 53.1529 128.673 53.1228 128.673 53.1H124.673ZM124.95 54.7494C124.974 54.8321 124.977 54.8705 124.978 54.8755C124.978 54.8767 124.975 54.83 124.995 54.7556C125.005 54.7188 125.02 54.681 125.038 54.6448C125.057 54.6085 125.076 54.5804 125.092 54.5608C125.124 54.5209 125.126 54.536 125.044 54.585L127.102 58.015C127.967 57.4958 128.593 56.7555 128.851 55.8194C129.09 54.9521 128.943 54.1649 128.796 53.6506L124.95 54.7494ZM126.073 54.3C126.113 54.3 126.092 54.3054 126.012 54.2811C125.937 54.2585 125.844 54.2201 125.749 54.1666C125.653 54.1129 125.577 54.0569 125.527 54.0118C125.472 53.963 125.48 53.9555 125.51 54.0077L122.037 55.9923C122.477 56.7629 123.18 57.3136 123.797 57.6584C124.419 58.0058 125.232 58.3 126.073 58.3V54.3ZM125.72 54.5442C124.618 49.8351 123.543 45.1325 122.958 40.4519L118.988 40.9481C119.603 45.8675 120.728 50.7649 121.826 55.4558L125.72 54.5442ZM122.958 40.4557L122.158 33.9557L118.188 34.4443L118.988 40.9443L122.958 40.4557ZM122.155 33.9298C121.858 31.7541 121.537 29.4583 120.761 27.2393L116.985 28.5607C117.609 30.3417 117.888 32.2459 118.191 34.4702L122.155 33.9298ZM120.861 27.6791C120.867 27.7375 120.865 27.8424 120.821 27.9658C120.779 28.0854 120.717 28.1692 120.671 28.2168C120.63 28.2605 120.606 28.2704 120.622 28.2617C120.637 28.2533 120.671 28.2378 120.722 28.223L119.624 24.3769C119.053 24.5399 118.346 24.8589 117.775 25.4582C117.149 26.1157 116.765 27.0407 116.885 28.1209L120.861 27.6791ZM119.521 28.1907C120.278 28.4517 120.578 28.856 120.782 29.4884C121.052 30.3268 121.063 31.2654 121.18 32.6661L125.166 32.3339C125.083 31.3346 125.044 29.6732 124.589 28.2616C124.068 26.644 122.968 25.1483 120.825 24.4093L119.521 28.1907ZM121.173 32.5C121.173 33.4089 121.306 34.2229 121.576 35.0325L125.37 33.7675C125.24 33.3771 125.173 32.9911 125.173 32.5H121.173ZM124.106 36.2974C126.065 35.6442 128.746 35.1351 130.835 35.3858L131.311 31.4142C128.4 31.0649 125.081 31.7558 122.841 32.5026L124.106 36.2974ZM130.78 35.3784C131.945 35.551 132.756 35.886 133.244 36.3198C133.648 36.6789 134.009 37.257 133.974 38.4412L137.972 38.5588C138.037 36.343 137.298 34.5711 135.902 33.3302C134.59 32.164 132.901 31.649 131.366 31.4216L130.78 35.3784ZM137.387 39.9142C139.73 37.5713 142.557 34.6459 144.994 32.5014L142.352 29.4986C139.789 31.7541 136.816 34.8287 134.559 37.0858L137.387 39.9142ZM144.665 32.7365C144.596 32.7763 144.525 32.8 144.434 32.809C144.375 32.8149 144.093 32.8366 143.743 32.6365C143.549 32.5256 143.335 32.3442 143.175 32.0743C143.012 31.8015 142.955 31.5237 142.953 31.2985C142.949 30.9035 143.11 30.7397 143.009 30.8906L146.337 33.1094C146.637 32.6603 146.959 32.0215 146.953 31.264C146.945 30.3495 146.458 29.5806 145.728 29.1635C145.115 28.8134 144.478 28.7851 144.04 28.8285C143.571 28.875 143.1 29.0237 142.681 29.2635L144.665 32.7365ZM143.025 30.8669C141.98 32.3874 140.755 33.9027 139.456 35.4769C138.174 37.0295 136.809 38.6524 135.573 40.3L138.773 42.7C139.937 41.1476 141.222 39.6205 142.54 38.0231C143.841 36.4473 145.166 34.8126 146.321 33.1331L143.025 30.8669ZM128.552 34.4122C126.577 34.6317 124.537 35.1818 123.079 35.9111L124.867 39.4889C125.809 39.0182 127.369 38.5683 128.994 38.3878L128.552 34.4122ZM121.988 37.9481C122.5 42.0417 123.316 46.1146 124.224 50.0497L128.122 49.1503C127.23 45.2854 126.446 41.3583 125.958 37.4519L121.988 37.9481ZM127.671 50.9251C128.786 49.6643 130.262 48.0572 131.55 46.3355C132.83 44.6235 134.063 42.6245 134.61 40.4981L130.736 39.5019C130.383 40.8755 129.516 42.3765 128.347 43.9395C127.185 45.4928 125.86 46.9357 124.675 48.2749L127.671 50.9251ZM134.598 40.5415C134.876 39.554 134.984 38.5603 134.775 37.6229C134.552 36.6251 133.997 35.8307 133.22 35.2865C131.846 34.3248 130.001 34.3036 128.625 34.4055L128.921 38.3945C129.516 38.3504 130 38.3574 130.373 38.4091C130.756 38.4624 130.903 38.547 130.926 38.5635C130.929 38.5657 130.909 38.5514 130.888 38.5193C130.866 38.4868 130.866 38.4708 130.871 38.4958C130.887 38.5647 130.92 38.846 130.748 39.4585L134.598 40.5415ZM151.121 22.0339C151.302 22.8502 151.63 24.4819 151.957 25.5747L155.789 24.4253C155.517 23.5181 155.244 22.1498 155.025 21.1661L151.121 22.0339ZM152.016 25.7428C152.087 25.9199 152.221 26.2311 152.454 26.5295C152.715 26.863 153.182 27.2791 153.894 27.3978C154.551 27.5073 155.086 27.3046 155.386 27.1545C155.693 27.0011 155.954 26.8022 156.153 26.6364L153.593 23.5636C153.492 23.6478 153.503 23.6239 153.597 23.5768C153.685 23.5329 154.045 23.3677 154.552 23.4522C155.114 23.5459 155.456 23.8745 155.604 24.0643C155.725 24.2189 155.759 24.3301 155.73 24.2572L152.016 25.7428ZM156.109 26.6726C157.868 25.2904 158.871 23.3904 159.688 22.029L156.258 19.971C155.275 21.6096 154.678 22.7096 153.637 23.5274L156.109 26.6726ZM157.725 19.0154C156.32 19.1911 154.369 19.3221 152.704 19.6343L153.442 23.5657C154.977 23.2779 156.426 23.2089 158.221 22.9846L157.725 19.0154ZM163.473 19.3C164.495 19.3 165.978 19.3053 166.856 19.1799L166.29 15.2201C165.768 15.2947 164.651 15.3 163.473 15.3V19.3ZM168.453 17.8835C168.708 17.1819 168.957 16.156 169.131 15.1541C169.302 14.1686 169.435 13.0028 169.368 12.0575L165.378 12.3425C165.411 12.7972 165.344 13.5814 165.19 14.4709C165.039 15.344 164.838 16.1181 164.693 16.5165L168.453 17.8835ZM165.837 10.9196C164.306 12.7558 163.107 14.4862 161.884 16.0851L165.062 18.5149C166.439 16.7138 167.44 15.2442 168.909 13.4804L165.837 10.9196Z" fill="#020202" mask="url(#path-1-outside-1_2_5)"/>
<defs>
<filter id="filter0_i_2_5" x="0.608322" y="0.768677" width="188.963" height="83.0464" filterUnits="userSpaceOnUse" color-interpolation-filters="sRGB">
<feFlood flood-opacity="0" result="BackgroundImageFix"/>
<feBlend mode="normal" in="SourceGraphic" in2="BackgroundImageFix" result="shape"/>
<feColorMatrix in="SourceAlpha" type="matrix" values="0 0 0 0 0 0 0 0 0 0 0 0 0 0 0 0 0 0 127 0" result="hardAlpha"/>
<feOffset dy="4"/>
<feGaussianBlur stdDeviation="2"/>
<feComposite in2="hardAlpha" operator="arithmetic" k2="-1" k3="1"/>
<feColorMatrix type="matrix" values="0 0 0 0 0 0 0 0 0 0 0 0 0 0 0 0 0 0 0.25 0"/>
<feBlend mode="normal" in2="shape" result="effect1_innerShadow_2_5"/>
</filter>
</defs>
</svg>
