<svg width="174" height="230" viewBox="0 0 174 230" fill="none" xmlns="http://www.w3.org/2000/svg">
<path d="M35.6315 1.79457C25.8325 5.64415 23.0329 10.5436 19.8832 28.0417C18.4834 35.7408 13.9339 51.4891 9.73432 63.0378C-0.0646085 89.6349 2.03516 106.433 16.3836 124.631C26.8824 137.58 27.2324 138.28 23.0329 154.028C20.5831 163.127 15.3337 172.226 10.7842 175.026C-5.31403 185.524 -2.8643 217.021 14.6338 225.07C25.8325 229.97 163.367 230.669 169.317 225.42C176.666 219.471 175.266 203.722 165.817 190.074C161.268 183.425 154.968 169.426 151.469 159.277C145.519 141.779 145.519 140.729 151.469 137.23C173.866 124.981 178.416 105.383 166.167 76.3364C161.268 65.1376 156.018 52.539 154.968 47.9895C147.969 23.1422 117.872 4.59426 81.4764 3.54438C68.1779 3.19442 53.8295 1.79457 49.9799 0.744685C46.1303 -0.655162 39.481 0.0447615 35.6315 1.79457ZM112.273 20.6925C124.172 25.592 142.72 44.4899 142.72 51.8391C142.72 54.2888 146.919 64.4377 151.469 74.9365C158.468 89.6349 159.518 94.5344 156.018 96.6342C152.519 99.0839 152.519 101.184 155.318 106.083C160.918 114.832 155.318 123.581 140.62 129.881C123.472 137.23 58.379 136.53 42.6307 129.181C18.4834 117.632 10.4342 94.1844 20.5831 65.1376C24.0827 55.3387 30.732 50.0893 30.732 57.0885C30.732 60.9381 46.8302 68.2873 54.8794 68.2873C58.379 68.2873 65.3782 65.1376 70.6276 60.9381C80.4266 53.2389 82.8763 35.3909 76.227 22.4423C72.7274 16.493 73.7773 15.793 86.7259 15.793C94.425 15.793 105.974 17.8928 112.273 20.6925ZM144.12 161.377C145.169 164.527 146.219 170.126 146.219 174.326C146.219 181.325 144.12 182.025 125.922 182.375C115.073 182.375 98.9745 185.174 90.2255 188.324C78.3268 192.524 76.227 192.874 81.1265 189.024C87.0758 184.475 116.123 176.775 126.971 176.775C129.421 176.775 132.571 171.876 133.971 166.277C136.42 154.728 140.62 152.628 144.12 161.377Z" fill="black"/>
<path d="M108.423 65.4876C96.1747 78.7862 95.1248 91.0348 105.624 101.184C116.472 112.382 121.722 112.382 133.621 101.534C150.069 86.4853 143.07 57.7885 122.772 57.7885C118.922 57.7885 112.623 61.2881 108.423 65.4876ZM137.12 79.836C139.92 84.3855 139.22 87.1852 134.67 91.7347C128.721 97.6841 128.021 97.6841 123.472 91.3848C119.972 86.4853 119.622 82.9857 122.072 78.0862C126.271 70.3871 131.521 71.087 137.12 79.836Z" fill="black"/>
</svg>
