<svg width="112" height="72" viewBox="0 0 112 72" fill="none" xmlns="http://www.w3.org/2000/svg">
<path d="M2.46663 1.86668C1.39997 3.06668 0.999967 8.40001 1.26663 17.4667L1.66663 31.3333L11 31.7333C23.6666 32.2667 25.6666 34.6667 13.4 34.6667C3.66663 34.6667 -0.0666994 36.5333 1.39997 40.5333C1.9333 42 4.86663 42.6667 11.8 42.9333C18.0666 43.2 21.6666 43.8667 22.0666 44.9333C22.4666 46.2667 19.9333 46.6667 12.6 46.6667C2.3333 46.6667 0.0666339 47.8667 1.79997 52.6667C2.46663 54.4 6.19997 54.6667 26.8666 54.4L51 54V50.6667C51 47.4667 50.6 47.3333 41.2666 46.9333C28.0666 46.4 28.7333 43.4667 42.0666 42.9333C51.1333 42.5333 51.6666 42.4 51.6666 39.4667C51.6666 35.4667 49.5333 34.6667 39.5333 34.6667C35.1333 34.6667 31.6666 34.1333 31.6666 33.3333C31.6666 32.5333 35 32 39 32C50.3333 32 51.8 29.8667 51.4 13.6L51 0.666681L27.5333 0.266681C8.59997 1.44515e-05 3.79997 0.266681 2.46663 1.86668ZM22.0666 16.4L22.4666 24.1333L16.0666 23.7333L9.66663 23.3333L9.26663 17.4667C8.59997 8.80001 9.39997 7.73335 15.9333 8.26668L21.6666 8.66668L22.0666 16.4ZM43.4 16.4L43.8 24.1333L37.4 23.7333L31 23.3333L30.6 17.4667C29.9333 8.80001 30.7333 7.73335 37.2666 8.26668L43 8.66668L43.4 16.4Z" fill="black"/>
<path d="M13.5334 14C12.3334 17.0667 13.9334 20 16.8667 20C19.9334 20 21.5334 16.2667 19.5334 13.8667C17.5334 11.4667 14.4667 11.4667 13.5334 14Z" fill="black"/>
<path d="M34.3334 13.8667C31.9334 16.8 33.6667 20.2667 37.2667 19.7333C39.5334 19.4667 40.3334 18.4 40.3334 16C40.3334 12.1333 36.8667 10.9333 34.3334 13.8667Z" fill="black"/>
<path d="M60.6 0.933316C60.0666 1.33332 59.6666 17.2 59.6666 36.1333C59.6666 66.1333 59.9333 70.5333 61.8 71.2C66.3333 72.9333 70.7333 71.8666 74.4666 68.1333L78.3333 64.2666V34.2666C78.3333 17.7333 77.9333 3.33332 77.5333 2.13332C76.8666 0.533316 74.8666 -1.69798e-05 69.1333 -1.69798e-05C64.8666 -1.69798e-05 61 0.399983 60.6 0.933316ZM70.3333 36.1333C70.3333 52.9333 69.8 62.6666 69 62.6666C68.2 62.6666 67.6666 52.6666 67.6666 35.2C67.6666 17.3333 68.0666 8.13331 69 8.66665C69.8 9.19998 70.3333 19.7333 70.3333 36.1333Z" fill="black"/>
<path d="M82.7334 2.53335C78.8667 5.73335 78.8667 9.20001 82.8667 12.9333C86.4667 16.4 90.0667 16.9333 91.1334 14C91.6667 12.9333 93.2667 12 95.0001 12C96.6001 12 98.7334 12.9333 99.6667 14C102.2 17.0667 105.533 16.4 108.733 12C112.333 7.20001 112.333 6.66668 108.467 2.93335C104.733 -0.533319 101.933 -0.799986 99.6667 2.00001C98.7334 3.06668 97.0001 4.00001 95.6667 4.00001C94.3334 4.00001 92.6001 3.06668 91.6667 2.00001C89.4001 -0.666652 86.3334 -0.399986 82.7334 2.53335Z" fill="black"/>
<path d="M79.6666 45.8667C79.6666 66.9333 79.9333 70.5333 81.8 71.2C85.4 72.5333 102.067 72.1333 105.533 70.5333C110.867 68 111.8 63.6 111.4 42L111 22L95.4 21.6L79.6666 21.2V45.8667ZM91 35.3333C91 38.2667 90.3333 40.6667 89.4 40.9333C88.2 41.3333 87.6666 39.7333 87.6666 35.3333C87.6666 30.9333 88.2 29.3333 89.4 29.6C90.3333 30 91 32.4 91 35.3333ZM103 35.3333C103 38.2667 102.333 40.6667 101.4 40.9333C100.2 41.3333 99.6666 39.7333 99.6666 35.3333C99.6666 30.9333 100.2 29.3333 101.4 29.6C102.333 30 103 32.4 103 35.3333ZM91 56C91 59.4667 90.3333 62 89.4 62.2667C88.2 62.6667 87.6666 60.9333 87.6666 56C87.6666 51.0667 88.2 49.3333 89.4 49.6C90.3333 50 91 52.5333 91 56ZM103.667 56.8C103.667 61.0667 103.133 62.6667 101.667 62.6667C100.2 62.6667 99.6666 61.2 99.6666 56.9333C99.6666 53.7333 100.067 50.6667 100.467 50.2667C102.333 48.4 103.667 51.0667 103.667 56.8Z" fill="black"/>
<path d="M4.2 58.2667C3.8 59.6 2.86667 61.7333 2.2 62.9333C-0.0666623 67.4667 0.733338 70.6667 4.33334 70.6667C11.1333 70.6667 14.6 57.2 7.93334 56.2667C6.06667 56 4.73334 56.6667 4.2 58.2667Z" fill="black"/>
<path d="M16.6 56.9333C14.8666 58.6667 15.6666 65.0667 18.0666 67.7333C23.1333 73.7333 28.6 70.5333 25.2666 63.4667C24.4666 62 23.5333 59.6 23.1333 58.2667C22.4666 56 18.3333 55.2 16.6 56.9333Z" fill="black"/>
<path d="M29.9333 56.9333C29.4 57.3333 29 59.7333 29 62.1333C29 66.9333 34.3333 72.4 37.8 71.0667C40.2 70.1333 40.2 65.7333 37.6667 63.2C36.6 62 35.6667 60 35.6667 58.5333C35.6667 56 31.8 54.9333 29.9333 56.9333Z" fill="black"/>
<path d="M41.5333 59.4667C40.0666 65.4667 48.1999 73.3333 51.9333 69.6C52.8666 68.6667 52.3333 66.2667 50.3333 62.1333C46.9999 55.0667 42.8666 53.8667 41.5333 59.4667Z" fill="black"/>
</svg>
